<svg width="603" height="521" viewBox="0 0 603 521" fill="none" xmlns="http://www.w3.org/2000/svg">
<g clip-path="url(#clip0_1259_4446)">
<path fill-rule="evenodd" clip-rule="evenodd" d="M214.217 396.576L223.41 408.542C247.355 439.709 241.513 484.396 210.362 508.354C179.211 532.311 134.546 526.466 110.601 495.299L20.2249 377.664C-30.4897 311.653 26.7064 217.807 108.583 232.689L165.64 243.06L98.6125 151.903C37.788 69.1831 139.133 -35.2552 223.572 23.1323L297.573 74.3022C296.79 52.3822 306.109 30.3982 324.65 15.7856C355.514 -8.5403 400.245 -3.22675 424.558 27.6537L582.166 227.83C646.749 309.857 544.882 418.357 459.022 358.987L373.148 299.608C384.535 358.23 333.914 418.332 267.269 406.219L214.217 396.576Z" fill="white"/>
<path fill-rule="evenodd" clip-rule="evenodd" d="M214.217 396.576L223.41 408.542C247.355 439.709 241.513 484.396 210.362 508.354C179.211 532.311 134.546 526.466 110.601 495.299L20.2249 377.664C-30.4897 311.653 26.7064 217.807 108.583 232.689L165.64 243.06L98.6125 151.903C37.788 69.1831 139.133 -35.2552 223.572 23.1323L297.573 74.3022C296.79 52.3822 306.109 30.3982 324.65 15.7856C355.514 -8.5403 400.245 -3.22675 424.558 27.6537L582.166 227.83C646.749 309.857 544.882 418.357 459.022 358.987L373.148 299.608C384.535 358.23 333.914 418.332 267.269 406.219L214.217 396.576Z" fill="url(#paint0_linear_1259_4446)" fill-opacity="0.2"/>
<line x1="141.253" y1="298.832" x2="206.917" y2="298.832" stroke="#189EFF" stroke-width="4.41302" stroke-linecap="round" stroke-dasharray="14.21 14.21"/>
<line x1="139.441" y1="233.738" x2="139.441" y2="358.065" stroke="#189EFF" stroke-width="4.41302" stroke-linecap="round" stroke-dasharray="14.21 14.21"/>
<line x1="230.057" y1="167.252" x2="230.057" y2="278.282" stroke="#189EFF" stroke-width="4.41302" stroke-linecap="round" stroke-dasharray="14.21 14.21"/>
<line x1="425.083" y1="218.126" x2="425.083" y2="351.539" stroke="#189EFF" stroke-width="4.41302" stroke-linecap="round" stroke-dasharray="14.21 14.21"/>
<line x1="322.68" y1="113.842" x2="322.68" y2="233.228" stroke="#189EFF" stroke-width="4.41302" stroke-linecap="round" stroke-dasharray="14.21 14.21"/>
<line x1="420.67" y1="311.432" x2="384.854" y2="311.432" stroke="#189EFF" stroke-width="4.41302" stroke-linecap="round" stroke-dasharray="14.21 14.21"/>
<line x1="450.371" y1="218.023" x2="425.183" y2="218.023" stroke="#189EFF" stroke-width="4.41302" stroke-linecap="round" stroke-dasharray="14.21 14.21"/>
<line x1="340.82" y1="113.842" x2="322.681" y2="113.842" stroke="#189EFF" stroke-width="4.41302" stroke-linecap="round" stroke-dasharray="14.21 14.21"/>
<line x1="139.063" y1="358.39" x2="120.924" y2="358.39" stroke="#189EFF" stroke-width="4.41302" stroke-linecap="round" stroke-dasharray="14.21 14.21"/>
<line x1="484.806" y1="352.203" x2="425.184" y2="352.203" stroke="#189EFF" stroke-width="4.41302" stroke-linecap="round" stroke-dasharray="14.21 14.21"/>
<mask id="mask0_1259_4446" style="mask-type:alpha" maskUnits="userSpaceOnUse" x="172" y="53" width="111" height="111">
<ellipse cx="227.876" cy="108.713" rx="55.0634" ry="55.0915" fill="#02BAFF"/>
</mask>
<g mask="url(#mask0_1259_4446)">
<g clip-path="url(#clip1_1259_4446)">
<rect width="110.127" height="203.415" transform="translate(172.814 -13.1689)" fill="#01C6FF"/>
<g filter="url(#filter0_f_1259_4446)">
<mask id="mask1_1259_4446" style="mask-type:alpha" maskUnits="userSpaceOnUse" x="150" y="-14" width="214" height="192">
<rect x="363.002" y="-13.168" width="191.132" height="212.317" rx="5.36681" transform="rotate(90 363.002 -13.168)" fill="#189EFF"/>
</mask>
<g mask="url(#mask1_1259_4446)">
<g filter="url(#filter1_f_1259_4446)">
<ellipse cx="292.4" cy="25.4932" rx="73.0293" ry="73.0292" transform="rotate(-180 292.4 25.4932)" fill="#0176FF"/>
</g>
<g filter="url(#filter2_f_1259_4446)">
<ellipse cx="164.327" cy="111.559" rx="73.0293" ry="73.0292" transform="rotate(-180 164.327 111.559)" fill="#0176FF"/>
</g>
<g filter="url(#filter3_f_1259_4446)">
<ellipse cx="191.353" cy="-2.11812" rx="73.0293" ry="73.0292" transform="rotate(-180 191.353 -2.11812)" fill="#01C6FF"/>
</g>
</g>
</g>
</g>
</g>
<path fill-rule="evenodd" clip-rule="evenodd" d="M252.626 95.2353L223.603 95.2353L223.602 118.706L228.179 118.706C228.697 116.156 230.949 114.236 233.649 114.236C236.349 114.236 238.601 116.156 239.118 118.706L252.626 118.706L252.626 95.2353ZM239.119 120.942C238.602 123.493 236.349 125.413 233.649 125.413C230.948 125.413 228.696 123.493 228.179 120.942L223.602 120.942C222.369 120.942 221.37 119.941 221.37 118.706L221.371 95.2353C221.371 94.0008 222.37 93 223.603 93L252.626 93C253.859 93 254.859 94.0008 254.859 95.2353L254.859 99.7059L259.155 99.7059C260.453 99.7059 261.687 100.272 262.536 101.256L266.178 105.483C266.877 106.295 267.262 107.331 267.262 108.404L267.262 118.706C267.262 119.941 266.262 120.942 265.029 120.942L263.677 120.942C263.16 123.493 260.907 125.413 258.207 125.413C255.505 125.413 253.252 123.491 252.736 120.939C252.7 120.941 252.663 120.942 252.625 120.942L239.119 120.942ZM254.858 115.354C255.791 114.652 256.95 114.236 258.207 114.236C260.907 114.236 263.159 116.156 263.676 118.706L265.029 118.706L265.029 110.883L254.858 110.883L254.858 115.354ZM254.858 108.647L265.029 108.647L265.029 108.404C265.029 107.867 264.837 107.349 264.487 106.943L260.845 102.716C260.421 102.224 259.804 101.941 259.155 101.941L254.859 101.941L254.858 108.647ZM236.998 119.825C236.997 121.676 235.498 123.178 233.649 123.178C231.799 123.178 230.3 121.676 230.3 119.825C230.3 117.973 231.799 116.472 233.649 116.472C235.498 116.472 236.998 117.973 236.998 119.825ZM258.207 123.178C260.056 123.178 261.556 121.676 261.556 119.825C261.556 117.973 260.056 116.472 258.207 116.472C256.357 116.472 254.858 117.973 254.858 119.825C254.858 121.676 256.357 123.178 258.207 123.178Z" fill="white"/>
<g clip-path="url(#clip2_1259_4446)">
<path fill-rule="evenodd" clip-rule="evenodd" d="M191.35 100.054C191.35 99.4369 191.85 98.9365 192.466 98.9365L210.326 98.9365C210.943 98.9365 211.443 99.4369 211.443 100.054L211.442 112.349L213.675 112.349C214.291 112.349 214.791 112.849 214.791 113.466L214.791 124.643C214.791 125.26 214.291 125.761 213.674 125.761L189.117 125.761C188.5 125.761 188 125.26 188 124.643L188.001 113.466C188.001 112.849 188.5 112.349 189.117 112.349L191.349 112.349L191.35 100.054ZM209.21 101.172L209.21 112.349L193.582 112.349L193.582 101.172L200.28 101.172L200.28 103.966C200.28 104.583 200.78 105.084 201.396 105.084C202.013 105.084 202.512 104.583 202.512 103.966L202.513 101.172L209.21 101.172ZM206.977 114.584L206.977 116.819C206.977 117.436 207.477 117.937 208.093 117.937C208.71 117.937 209.21 117.436 209.21 116.819L209.21 114.584L212.559 114.584L212.558 123.525L203.628 123.525L203.628 114.584L206.977 114.584ZM194.698 116.819L194.698 114.584L190.233 114.584L190.233 123.525L201.396 123.525L201.396 114.584L196.931 114.584L196.931 116.819C196.931 117.436 196.431 117.937 195.814 117.937C195.198 117.937 194.698 117.436 194.698 116.819Z" fill="white"/>
</g>
<mask id="mask2_1259_4446" style="mask-type:alpha" maskUnits="userSpaceOnUse" x="8" y="301" width="111" height="111">
<ellipse cx="63.4563" cy="356.39" rx="55.0634" ry="55.0915" fill="#02BAFF"/>
</mask>
<g mask="url(#mask2_1259_4446)">
<g clip-path="url(#clip3_1259_4446)">
<rect width="110.127" height="203.415" transform="translate(8.3941 234.508)" fill="#01C6FF"/>
<g filter="url(#filter4_f_1259_4446)">
<mask id="mask3_1259_4446" style="mask-type:alpha" maskUnits="userSpaceOnUse" x="-14" y="234" width="213" height="192">
<rect x="198.586" y="234.507" width="191.132" height="212.317" rx="5.36681" transform="rotate(90 198.586 234.507)" fill="#189EFF"/>
</mask>
<g mask="url(#mask3_1259_4446)">
<g filter="url(#filter5_f_1259_4446)">
<ellipse cx="127.984" cy="273.168" rx="73.0293" ry="73.0292" transform="rotate(-180 127.984 273.168)" fill="#0176FF"/>
</g>
<g filter="url(#filter6_f_1259_4446)">
<ellipse cx="-0.0888608" cy="359.234" rx="73.0293" ry="73.0292" transform="rotate(-180 -0.0888608 359.234)" fill="#0176FF"/>
</g>
<g filter="url(#filter7_f_1259_4446)">
<ellipse cx="26.9363" cy="245.557" rx="73.0293" ry="73.0292" transform="rotate(-180 26.9363 245.557)" fill="#01C6FF"/>
</g>
</g>
</g>
<path fill-rule="evenodd" clip-rule="evenodd" d="M84.1705 354.497C85.6977 354.897 86.5704 356.118 86.571 357.944C86.5713 358.605 86.0363 359.141 85.3761 359.141C84.7158 359.141 84.1804 358.605 84.1802 357.944C84.1798 357.01 83.918 356.748 82.9843 356.748C82.0506 356.748 81.7889 357.01 81.7893 357.944C81.7894 358.281 82.1512 358.583 83.5198 359.268C85.7381 360.378 86.5722 361.074 86.5728 362.732C86.5735 364.558 85.7017 365.78 84.1748 366.179C84.1804 366.226 84.1833 366.274 84.1833 366.322C84.1835 366.983 83.6485 367.519 82.9883 367.519C82.3281 367.519 81.7926 366.983 81.7924 366.322C81.7924 366.274 81.7952 366.226 81.8008 366.179C80.2735 365.78 79.4009 364.558 79.4002 362.732C79.3999 362.071 79.935 361.535 80.5952 361.535C81.2554 361.535 81.7908 362.071 81.7911 362.732C81.7914 363.667 82.0532 363.929 82.9869 363.929C83.9206 363.929 84.1823 363.667 84.1819 362.732C84.1818 362.395 83.8201 362.094 82.4514 361.409C80.2331 360.298 79.399 359.603 79.3984 357.944C79.3977 356.118 80.2695 354.897 81.7964 354.497C81.7909 354.45 81.788 354.402 81.788 354.354C81.7877 353.693 82.3227 353.157 82.983 353.157C83.6432 353.157 84.1786 353.693 84.1788 354.354C84.1789 354.402 84.176 354.45 84.1705 354.497V354.497Z" fill="white"/>
<rect x="0.948072" y="0.947721" width="33.1482" height="24.6411" rx="1.89544" transform="matrix(1 6.05914e-08 0.000370122 1 65.0704 347.167)" stroke="white" stroke-width="1.89544"/>
<path fill-rule="evenodd" clip-rule="evenodd" d="M28.8434 340.895L58.2008 340.895C58.7242 340.895 59.1487 341.32 59.1488 341.843L59.1508 347.056L27.898 347.056L27.8961 341.843C27.8959 341.32 28.32 340.895 28.8434 340.895ZM27.8987 348.952L27.9038 362.693C27.904 363.217 28.3284 363.641 28.8519 363.641L58.2092 363.641C58.7326 363.641 59.1568 363.217 59.1566 362.693L59.1515 348.952L27.8987 348.952ZM26.0006 341.843C26 340.273 27.2725 339 28.8427 339L58.2001 339C59.7703 339 61.0437 340.273 61.0443 341.843L61.052 362.693C61.0526 364.264 59.7801 365.537 58.2099 365.537L28.8526 365.537C27.2823 365.537 26.0089 364.264 26.0083 362.693L26.0006 341.843ZM33.5819 354.164C33.5817 353.641 34.0059 353.216 34.5293 353.216L45.8948 353.216C46.4182 353.216 46.8427 353.641 46.8429 354.164C46.8431 354.687 46.4189 355.112 45.8955 355.112L34.53 355.112C34.0066 355.112 33.5821 354.687 33.5819 354.164ZM49.6814 353.216C49.1579 353.216 48.7338 353.641 48.734 354.164C48.7342 354.687 49.1586 355.112 49.6821 355.112L54.4177 355.112C54.9411 355.112 55.3652 354.687 55.3651 354.164C55.3649 353.641 54.9404 353.216 54.417 353.216L49.6814 353.216Z" fill="white"/>
</g>
</g>
<mask id="mask4_1259_4446" style="mask-type:alpha" maskUnits="userSpaceOnUse" x="342" y="59" width="111" height="111">
<ellipse cx="397.814" cy="114.596" rx="55.0634" ry="55.0915" fill="#02BAFF"/>
</mask>
<g mask="url(#mask4_1259_4446)">
<g clip-path="url(#clip4_1259_4446)">
<rect width="110.127" height="203.415" transform="translate(342.749 -7.28516)" fill="#01C6FF"/>
<g filter="url(#filter8_f_1259_4446)">
<mask id="mask5_1259_4446" style="mask-type:alpha" maskUnits="userSpaceOnUse" x="320" y="-8" width="213" height="192">
<rect x="532.94" y="-7.28613" width="191.132" height="212.317" rx="5.36681" transform="rotate(90 532.94 -7.28613)" fill="#189EFF"/>
</mask>
<g mask="url(#mask5_1259_4446)">
<g filter="url(#filter9_f_1259_4446)">
<ellipse cx="462.338" cy="31.375" rx="73.0293" ry="73.0292" transform="rotate(-180 462.338 31.375)" fill="#0176FF"/>
</g>
<g filter="url(#filter10_f_1259_4446)">
<ellipse cx="334.264" cy="117.441" rx="73.0293" ry="73.0292" transform="rotate(-180 334.264 117.441)" fill="#0176FF"/>
</g>
<g filter="url(#filter11_f_1259_4446)">
<ellipse cx="361.29" cy="3.76372" rx="73.0293" ry="73.0292" transform="rotate(-180 361.29 3.76372)" fill="#01C6FF"/>
</g>
</g>
</g>
<path fill-rule="evenodd" clip-rule="evenodd" d="M374.167 103.345H381.167C383.1 103.345 384.667 104.913 384.667 106.847V123.189C384.667 125.123 383.1 126.691 381.167 126.691H374.167V127.772C374.167 128.417 373.645 128.939 373 128.939C372.356 128.939 371.834 128.417 371.834 127.772V126.691H364.834C362.901 126.691 361.334 125.123 361.334 123.189V106.847C361.334 104.913 362.901 103.345 364.834 103.345H371.834V102.264C371.834 101.619 372.356 101.097 373 101.097C373.645 101.097 374.167 101.619 374.167 102.264V103.345ZM424.334 95.6578L413.351 84.669H411.5C410.856 84.669 410.334 85.1916 410.334 85.8362V87.7157L421.683 98.6761H423.167C423.811 98.6761 424.334 98.1535 424.334 97.5089V95.6578V95.6578ZM424.334 92.3563V85.8362C424.334 85.1916 423.812 84.669 423.167 84.669H416.65L424.334 92.3563ZM420.977 101.011L420.863 101.129L420.74 101.011H411.5C409.567 101.011 408 99.4434 408 97.5094V85.8367C408 83.9028 409.567 82.335 411.5 82.335H423.167C425.1 82.335 426.667 83.9028 426.667 85.8367V97.5094C426.667 99.4434 425.1 101.011 423.167 101.011H420.977V101.011ZM418.323 98.6767L410.334 90.9609V97.5094C410.334 98.1541 410.856 98.6767 411.501 98.6767H418.323ZM418.5 108.015H416.167V122.022H418.5V108.015ZM420.834 108.015V122.022H423.167C423.812 122.022 424.334 121.499 424.334 120.855V109.182C424.334 108.537 423.812 108.015 423.167 108.015H420.834ZM413.834 108.015H411.501C410.856 108.015 410.334 108.537 410.334 109.182V120.855C410.334 121.499 410.856 122.022 411.501 122.022H413.834V108.015ZM424.334 137.196H410.334V139.531H424.334V137.196ZM424.334 134.862V132.528C424.334 131.883 423.811 131.36 423.167 131.36H411.5C410.856 131.36 410.334 131.883 410.334 132.528V134.862H424.334ZM424.334 141.865H410.334V144.2C410.334 144.845 410.856 145.367 411.501 145.367H423.167C423.812 145.367 424.334 144.845 424.334 144.2V141.865ZM364.834 105.681C364.19 105.681 363.667 106.203 363.667 106.848V123.19C363.667 123.834 364.19 124.357 364.834 124.357H381.167C381.812 124.357 382.334 123.834 382.334 123.19V106.848C382.334 106.203 381.812 105.681 381.167 105.681H364.834ZM411.5 129.025H423.167C425.1 129.025 426.667 130.593 426.667 132.527V144.2C426.667 146.134 425.1 147.702 423.167 147.702H411.5C409.567 147.702 408 146.134 408 144.2V132.527C408 130.593 409.567 129.025 411.5 129.025ZM411.5 105.681H423.167C425.1 105.681 426.667 107.249 426.667 109.182V120.855C426.667 122.789 425.1 124.357 423.167 124.357H411.5C409.567 124.357 408 122.789 408 120.855V109.182C408 107.249 409.567 105.681 411.5 105.681ZM397.842 112.342C397.386 111.886 397.386 111.147 397.842 110.692C398.298 110.236 399.036 110.236 399.492 110.692L402.992 114.193C403.448 114.649 403.448 115.388 402.992 115.844L399.492 119.346C399.036 119.802 398.298 119.802 397.842 119.346C397.386 118.89 397.386 118.151 397.842 117.695L400.517 115.019L397.842 112.342ZM397.842 88.9966C397.386 88.5407 397.386 87.8017 397.842 87.3458C398.298 86.89 399.036 86.89 399.492 87.3458L402.992 90.8476C403.448 91.3035 403.448 92.0425 402.992 92.4984L399.492 96.0002C399.036 96.456 398.298 96.456 397.842 96.0002C397.386 95.5443 397.386 94.8052 397.842 94.3494L400.517 91.673L397.842 88.9966ZM397.842 135.687C397.386 135.231 397.386 134.492 397.842 134.036C398.298 133.581 399.036 133.581 399.492 134.036L402.992 137.538C403.448 137.994 403.448 138.733 402.992 139.189L399.492 142.691C399.036 143.147 398.298 143.147 397.842 142.691C397.386 142.235 397.386 141.496 397.842 141.04L400.517 138.364L397.842 135.687ZM395.167 139.531H394C393.356 139.531 392.834 139.008 392.834 138.363C392.834 137.719 393.356 137.196 394 137.196H395.167C395.811 137.196 396.334 137.719 396.334 138.363C396.334 139.008 395.811 139.531 395.167 139.531ZM389.334 139.531H388.167C387.523 139.531 387.001 139.008 387.001 138.363C387.001 137.719 387.523 137.196 388.167 137.196H389.334C389.978 137.196 390.501 137.719 390.501 138.363C390.501 139.008 389.978 139.531 389.334 139.531ZM383.5 139.531H382.334C381.689 139.531 381.167 139.008 381.167 138.363C381.167 137.719 381.689 137.196 382.334 137.196H383.5C384.145 137.196 384.667 137.719 384.667 138.363C384.667 139.008 384.145 139.531 383.5 139.531ZM377.259 138.675C376.855 138.488 376.464 138.273 376.091 138.03C375.551 137.679 375.397 136.956 375.748 136.416C376.099 135.875 376.821 135.721 377.362 136.072C377.641 136.254 377.934 136.416 378.237 136.555C378.822 136.826 379.077 137.519 378.807 138.104C378.537 138.69 377.844 138.945 377.259 138.675ZM372.613 133.933C372.435 133.525 372.286 133.105 372.167 132.674C371.996 132.053 372.361 131.41 372.983 131.239C373.604 131.068 374.246 131.434 374.417 132.055C374.506 132.377 374.617 132.692 374.75 132.997C375.009 133.588 374.74 134.276 374.149 134.534C373.559 134.793 372.871 134.523 372.613 133.933ZM395.167 90.5059C395.811 90.5059 396.334 91.0285 396.334 91.6731C396.334 92.3178 395.811 92.8404 395.167 92.8404H394C393.356 92.8404 392.834 92.3178 392.834 91.6731C392.834 91.0285 393.356 90.5059 394 90.5059H395.167ZM389.334 90.5059C389.978 90.5059 390.501 91.0285 390.501 91.6731C390.501 92.3178 389.978 92.8404 389.334 92.8404H388.167C387.523 92.8404 387.001 92.3178 387.001 91.6731C387.001 91.0285 387.523 90.5059 388.167 90.5059H389.334ZM383.5 90.5059C384.145 90.5059 384.667 91.0285 384.667 91.6731C384.667 92.3178 384.145 92.8404 383.5 92.8404H382.334C381.689 92.8404 381.167 92.3178 381.167 91.6731C381.167 91.0285 381.689 90.5059 382.334 90.5059H383.5ZM377.259 91.3617C377.844 91.0915 378.537 91.3469 378.807 91.9322C379.077 92.5175 378.822 93.2111 378.237 93.4813C377.934 93.6212 377.641 93.7827 377.362 93.9645C376.821 94.3155 376.099 94.1617 375.748 93.621C375.397 93.0803 375.551 92.3574 376.091 92.0064C376.464 91.764 376.855 91.5485 377.259 91.3617ZM372.613 96.104C372.871 95.5134 373.559 95.2441 374.149 95.5025C374.74 95.7609 375.009 96.4492 374.75 97.0398C374.617 97.3449 374.506 97.6596 374.417 97.9817C374.246 98.6032 373.604 98.9685 372.983 98.7976C372.361 98.6266 371.996 97.9841 372.167 97.3626C372.286 96.9321 372.435 96.5117 372.613 96.104ZM388.167 116.186C387.523 116.186 387.001 115.664 387.001 115.019C387.001 114.374 387.523 113.852 388.167 113.852H389.334C389.978 113.852 390.501 114.374 390.501 115.019C390.501 115.664 389.978 116.186 389.334 116.186H388.167ZM394 116.186C393.356 116.186 392.834 115.664 392.834 115.019C392.834 114.374 393.356 113.852 394 113.852H395.167C395.811 113.852 396.334 114.374 396.334 115.019C396.334 115.664 395.811 116.186 395.167 116.186H394Z" fill="white"/>
</g>
</g>
<mask id="mask6_1259_4446" style="mask-type:alpha" maskUnits="userSpaceOnUse" x="452" y="160" width="111" height="111">
<ellipse cx="507.776" cy="215.788" rx="55.0634" ry="55.0915" fill="#02BAFF"/>
</mask>
<g mask="url(#mask6_1259_4446)">
<g clip-path="url(#clip5_1259_4446)">
<rect width="110.127" height="203.415" transform="translate(452.713 93.9062)" fill="#01C6FF"/>
<g filter="url(#filter12_f_1259_4446)">
<mask id="mask7_1259_4446" style="mask-type:alpha" maskUnits="userSpaceOnUse" x="430" y="93" width="213" height="193">
<rect x="642.905" y="93.9062" width="191.132" height="212.317" rx="5.36681" transform="rotate(90 642.905 93.9062)" fill="#189EFF"/>
</mask>
<g mask="url(#mask7_1259_4446)">
<g filter="url(#filter13_f_1259_4446)">
<ellipse cx="572.303" cy="132.567" rx="73.0293" ry="73.0292" transform="rotate(-180 572.303 132.567)" fill="#0176FF"/>
</g>
<g filter="url(#filter14_f_1259_4446)">
<ellipse cx="444.232" cy="218.634" rx="73.0293" ry="73.0292" transform="rotate(-180 444.232 218.634)" fill="#0176FF"/>
</g>
<g filter="url(#filter15_f_1259_4446)">
<ellipse cx="471.255" cy="104.956" rx="73.0293" ry="73.0292" transform="rotate(-180 471.255 104.956)" fill="#01C6FF"/>
</g>
</g>
</g>
<path fill-rule="evenodd" clip-rule="evenodd" d="M531.388 189H484.628C483.413 189 482.292 189.652 481.689 190.707L478.722 195.904C478.253 196.726 478.006 197.656 478.006 198.602L478.006 203.663C478.005 206.75 479.646 209.453 482.099 210.944L482.095 236.461L482.101 236.626L482.102 236.637C482.192 237.861 483.211 238.825 484.456 238.825L531.545 238.825L531.709 238.819L531.721 238.818C532.943 238.728 533.906 237.707 533.906 236.461L533.91 210.944C536.364 209.452 538.005 206.749 538.006 203.663L538.006 198.602C538.006 197.656 537.76 196.726 537.291 195.904L534.326 190.707C533.724 189.652 532.602 189 531.388 189ZM484.627 191.677L493.068 191.677L492.361 195.216L492.338 195.448L492.337 203.16L492.346 203.312L492.361 203.391C492.345 203.478 492.337 203.569 492.337 203.663C492.337 206.886 489.727 209.499 486.508 209.499C483.288 209.499 480.679 206.886 480.68 203.663L480.68 198.602C480.681 198.122 480.806 197.649 481.044 197.232L484.01 192.036C484.137 191.814 484.372 191.677 484.627 191.677ZM495.012 195.596L495.795 191.677L506.67 191.677L506.669 203.16L506.678 203.312L506.692 203.391C506.677 203.478 506.669 203.569 506.669 203.663C506.668 206.886 504.058 209.499 500.839 209.499C497.62 209.499 495.011 206.886 495.011 203.663C495.011 203.571 495.004 203.482 494.989 203.397C495.004 203.317 495.011 203.234 495.011 203.151L495.012 195.596ZM509.343 203.151L509.344 191.677H520.219L521.001 195.596L521 203.151C521 203.234 521.008 203.317 521.023 203.396C521.008 203.482 521 203.571 521 203.663C521 206.886 518.39 209.499 515.171 209.499C511.951 209.499 509.342 206.886 509.343 203.663C509.343 203.571 509.335 203.482 509.32 203.397C509.335 203.317 509.343 203.234 509.343 203.151ZM523.652 195.216L522.945 191.677L531.387 191.677C531.642 191.677 531.878 191.814 532.004 192.036L534.969 197.232C535.207 197.649 535.332 198.122 535.332 198.602L535.332 203.663C535.331 206.886 532.721 209.499 529.502 209.499C526.283 209.499 523.674 206.886 523.674 203.663C523.674 203.571 523.667 203.482 523.652 203.397C523.666 203.317 523.674 203.234 523.674 203.151L523.675 195.448L523.652 195.216ZM486.507 212.176C489.518 212.176 492.163 210.61 493.673 208.248C495.184 210.61 497.828 212.176 500.839 212.176C503.849 212.176 506.494 210.61 508.005 208.248C509.515 210.61 512.16 212.176 515.17 212.176C518.181 212.176 520.825 210.61 522.336 208.248C523.847 210.61 526.491 212.176 529.502 212.176C530.096 212.176 530.676 212.115 531.236 211.999L531.232 236.147H527.764L527.767 219.037C527.767 217.732 526.71 216.673 525.406 216.673H516.193C514.889 216.673 513.832 217.732 513.832 219.037L513.83 236.147H484.77L484.774 211.999C485.334 212.115 485.913 212.176 486.507 212.176ZM490.601 216.673C489.297 216.673 488.24 217.732 488.24 219.037L488.239 228.262C488.239 229.567 489.295 230.625 490.599 230.625H508.002C509.306 230.625 510.363 229.567 510.363 228.262L510.364 219.037C510.364 217.732 509.308 216.673 508.004 216.673H490.601ZM490.913 227.948L490.914 219.351H507.69L507.689 227.948H490.913ZM516.504 236.147L516.506 219.351H525.092L525.09 236.147H516.504Z" fill="white"/>
</g>
</g>
<mask id="mask8_1259_4446" style="mask-type:alpha" maskUnits="userSpaceOnUse" x="487" y="298" width="112" height="111">
<ellipse cx="543.056" cy="353.455" rx="55.0634" ry="55.0915" fill="#02BAFF"/>
</mask>
<g mask="url(#mask8_1259_4446)">
<g clip-path="url(#clip6_1259_4446)">
<rect width="110.127" height="203.415" transform="translate(487.992 231.572)" fill="#01C6FF"/>
<g filter="url(#filter16_f_1259_4446)">
<mask id="mask9_1259_4446" style="mask-type:alpha" maskUnits="userSpaceOnUse" x="465" y="231" width="214" height="192">
<rect x="678.181" y="231.572" width="191.132" height="212.317" rx="5.36681" transform="rotate(90 678.181 231.572)" fill="#189EFF"/>
</mask>
<g mask="url(#mask9_1259_4446)">
<g filter="url(#filter17_f_1259_4446)">
<ellipse cx="607.579" cy="270.233" rx="73.0293" ry="73.0292" transform="rotate(-180 607.579 270.233)" fill="#0176FF"/>
</g>
<g filter="url(#filter18_f_1259_4446)">
<ellipse cx="479.506" cy="356.3" rx="73.0293" ry="73.0292" transform="rotate(-180 479.506 356.3)" fill="#0176FF"/>
</g>
<g filter="url(#filter19_f_1259_4446)">
<ellipse cx="506.532" cy="242.622" rx="73.0293" ry="73.0292" transform="rotate(-180 506.532 242.622)" fill="#01C6FF"/>
</g>
</g>
</g>
<path fill-rule="evenodd" clip-rule="evenodd" d="M537.995 321.87C537.996 320.285 539.281 319 540.866 319H549.476C551.061 319 552.346 320.285 552.346 321.87L552.343 337.369C552.343 338.954 551.058 340.239 549.473 340.239H540.863C539.277 340.239 537.993 338.954 537.993 337.369L537.995 321.87ZM540.866 321.296C540.549 321.296 540.292 321.553 540.292 321.87L540.289 337.369C540.289 337.686 540.546 337.943 540.863 337.943H549.473C549.79 337.943 550.047 337.686 550.047 337.369L550.05 321.87C550.05 321.553 549.793 321.296 549.476 321.296H540.866ZM543.733 335.36C543.734 334.567 544.376 333.925 545.169 333.925C545.961 333.925 546.604 334.567 546.604 335.36C546.603 336.152 545.961 336.795 545.168 336.795C544.376 336.795 543.733 336.152 543.733 335.36ZM556.943 338.083C557.4 337.626 558.021 337.369 558.668 337.369H569.554C570.201 337.369 570.821 337.626 571.279 338.083L572.293 339.098C572.751 339.555 573.008 340.176 573.008 340.823L573.007 341.961C573.007 342.798 572.741 343.574 572.29 344.208L572.288 353.441C572.288 354.392 571.517 355.163 570.566 355.163H557.65C556.699 355.163 555.928 354.392 555.928 353.441L555.93 344.208C555.478 343.574 555.213 342.798 555.213 341.961L555.213 340.823C555.213 340.176 555.47 339.555 555.928 339.098L556.943 338.083ZM558.667 339.378C558.553 339.378 558.444 339.423 558.363 339.504L557.348 340.519C557.267 340.6 557.222 340.709 557.222 340.823L557.222 341.961C557.222 342.992 558.057 343.827 559.087 343.827C560.117 343.827 560.953 342.992 560.953 341.961C560.953 341.605 561.242 341.315 561.599 341.315C561.955 341.315 562.244 341.605 562.244 341.961C562.244 342.992 563.079 343.827 564.11 343.827C565.14 343.827 565.975 342.992 565.976 341.961C565.976 341.605 566.265 341.315 566.621 341.315C566.978 341.315 567.267 341.605 567.267 341.961C567.267 342.992 568.102 343.827 569.132 343.827C570.163 343.827 570.998 342.992 570.998 341.961L570.998 340.823C570.998 340.709 570.953 340.6 570.872 340.519L569.858 339.504C569.777 339.423 569.668 339.378 569.553 339.378H558.667ZM517.327 342.822C517.327 341.554 518.356 340.526 519.624 340.526H531.678C532.946 340.526 533.974 341.554 533.974 342.822L533.973 350.858C533.972 352.126 532.944 353.154 531.676 353.154H519.622C518.354 353.154 517.326 352.126 517.326 350.858L517.327 342.822ZM521.032 342.439L525.047 345.25C525.409 345.503 525.891 345.503 526.254 345.25L530.269 342.439H521.032ZM519.241 343.521L519.239 350.858C519.239 351.07 519.411 351.241 519.622 351.241H531.676C531.888 351.241 532.059 351.07 532.059 350.858L532.06 343.521L527.351 346.817C526.329 347.532 524.97 347.532 523.949 346.817L519.241 343.521ZM561.598 344.912C560.922 345.488 560.045 345.836 559.087 345.836C558.687 345.836 558.302 345.775 557.939 345.663L557.938 353.154H559.516L559.517 348.419C559.517 347.468 560.288 346.697 561.239 346.697H566.979C567.931 346.697 568.701 347.468 568.701 348.419L568.7 353.154H570.279L570.28 345.663C569.917 345.775 569.532 345.836 569.132 345.836C568.174 345.836 567.297 345.488 566.621 344.912C565.945 345.488 565.067 345.836 564.109 345.836C563.151 345.836 562.274 345.488 561.598 344.912ZM561.526 348.706L561.525 353.154H563.104L563.104 348.706H561.526ZM565.114 348.706L565.113 353.154H566.692L566.692 348.706H565.114ZM561.228 370.604C563.287 369.741 565.779 370.604 566.754 372.652C567.621 374.592 566.97 377.071 565.128 377.934L564.911 378.041L547.354 385.479C546.378 385.911 545.295 386.018 544.211 385.803L543.816 385.707L525.897 381.275H521.67C521.67 383 520.369 384.401 518.635 384.509H518.419H516.251C514.517 384.509 513.109 383.216 513.001 381.491L513.001 381.275L513.003 366.184C513.003 364.459 514.304 363.058 516.038 362.95H516.255H518.422C520.156 362.95 521.565 364.244 521.673 365.968L521.673 366.184H529.909C530.884 366.184 531.968 366.4 532.943 366.831L533.269 366.939L540.312 370.496H548.223C549.524 370.496 550.716 371.143 551.366 372.113L557.001 369.957C558.302 369.526 559.711 369.849 560.686 370.819L561.228 370.604ZM519.503 381.383L519.503 381.275L519.505 366.184C519.506 365.537 519.072 365.106 518.422 365.106H516.255C515.713 365.106 515.279 365.537 515.171 366.076L515.171 366.184L515.168 381.275C515.168 381.814 515.601 382.245 516.143 382.353H516.252H518.419C518.961 382.353 519.395 381.922 519.503 381.383ZM557.76 371.574H557.651L552.016 373.622L552.016 374.053L552.016 374.269L552.016 374.484L558.952 371.682C558.627 371.466 558.193 371.466 557.76 371.574ZM546.379 383.539L563.936 376.101C564.912 375.67 565.237 374.484 564.803 373.622C564.37 372.652 563.178 372.221 562.203 372.544L561.986 372.652L550.281 377.503C550.227 377.503 550.146 377.529 550.064 377.556C549.983 377.583 549.902 377.61 549.848 377.61C549.414 377.826 548.872 378.041 548.33 378.041H548.114H539.444C538.794 378.041 538.36 377.61 538.36 376.964C538.36 376.425 538.794 375.993 539.336 375.886H539.444H547.355C547.897 375.886 548.439 375.778 548.981 375.67C549.414 375.347 549.74 374.808 549.74 374.269C549.74 373.406 549.09 372.76 548.223 372.652H548.114H539.987C539.932 372.652 539.878 372.625 539.824 372.598L539.824 372.598C539.77 372.571 539.716 372.544 539.662 372.544H539.553L532.293 368.879C531.643 368.556 530.992 368.34 530.234 368.34H529.909H521.673L521.671 379.119H526.006H526.114H526.222L544.32 383.647L544.399 383.66L544.399 383.66L544.399 383.66C545.014 383.763 545.538 383.85 546.085 383.647L546.379 383.539ZM544.59 362.913C541.259 362.913 538.652 364.246 537.887 364.922C537.412 365.342 536.686 365.297 536.267 364.821C535.847 364.346 535.892 363.621 536.367 363.201C537.593 362.118 540.757 360.617 544.59 360.617C546.455 360.617 548.193 360.929 549.615 361.4C550.996 361.857 552.218 362.513 552.914 363.303C553.333 363.778 553.286 364.504 552.81 364.923C552.335 365.342 551.609 365.296 551.19 364.82C550.891 364.48 550.123 363.987 548.893 363.579C547.703 363.185 546.208 362.913 544.59 362.913ZM533.383 361.393C534.776 359.869 539.132 357.174 544.591 357.174C547.249 357.174 549.713 357.726 551.689 358.537C553.695 359.36 555.081 360.4 555.709 361.284C556.076 361.8 556.793 361.921 557.31 361.554C557.826 361.186 557.948 360.469 557.58 359.953C556.601 358.576 554.773 357.32 552.561 356.412C550.317 355.492 547.558 354.878 544.591 354.878C538.477 354.878 533.51 357.852 531.689 359.843C531.261 360.311 531.293 361.037 531.761 361.465C532.229 361.893 532.955 361.861 533.383 361.393Z" fill="white"/>
</g>
</g>
<mask id="mask10_1259_4446" style="mask-type:alpha" maskUnits="userSpaceOnUse" x="202" y="231" width="181" height="182">
<ellipse cx="292.655" cy="321.965" rx="90.1467" ry="90.1927" fill="#02BAFF"/>
</mask>
<g mask="url(#mask10_1259_4446)">
<g clip-path="url(#clip7_1259_4446)">
<rect width="180.293" height="333.019" transform="translate(202.505 122.428)" fill="#01C6FF"/>
<g filter="url(#filter20_f_1259_4446)">
<mask id="mask11_1259_4446" style="mask-type:alpha" maskUnits="userSpaceOnUse" x="166" y="122" width="348" height="314">
<rect x="513.874" y="122.428" width="312.911" height="347.593" rx="8.78623" transform="rotate(90 513.874 122.428)" fill="#189EFF"/>
</mask>
<g mask="url(#mask11_1259_4446)">
<g filter="url(#filter21_f_1259_4446)">
<ellipse cx="398.287" cy="185.723" rx="119.559" ry="119.559" transform="rotate(-180 398.287 185.723)" fill="#0176FF"/>
</g>
<g filter="url(#filter22_f_1259_4446)">
<ellipse cx="188.616" cy="326.624" rx="119.559" ry="119.559" transform="rotate(-180 188.616 326.624)" fill="#0176FF"/>
</g>
<g filter="url(#filter23_f_1259_4446)">
<ellipse cx="232.86" cy="140.518" rx="119.559" ry="119.559" transform="rotate(-180 232.86 140.518)" fill="#01C6FF"/>
</g>
</g>
</g>
<path fill-rule="evenodd" clip-rule="evenodd" d="M325.493 341.871C332.789 341.871 338.704 347.789 338.704 355.089C338.704 362.389 332.789 368.308 325.493 368.308C318.196 368.308 312.281 362.389 312.281 355.089C312.281 347.789 318.196 341.871 325.493 341.871ZM325.493 344.981C319.913 344.981 315.39 349.506 315.39 355.089C315.39 360.672 319.913 365.197 325.493 365.197C331.073 365.197 335.596 360.672 335.596 355.089C335.596 349.506 331.073 344.981 325.493 344.981ZM262.543 343.426C266.835 343.426 270.315 346.907 270.315 351.201C270.315 355.496 266.835 358.977 262.543 358.977C258.251 358.977 254.771 355.496 254.771 351.201C254.771 346.907 258.251 343.426 262.543 343.426ZM262.543 346.536C259.968 346.536 257.88 348.625 257.88 351.201C257.88 353.778 259.968 355.867 262.543 355.867C265.118 355.867 267.206 353.778 267.206 351.201C267.206 348.625 265.118 346.536 262.543 346.536ZM300.224 293.064L322.205 315.057C325.847 318.7 325.847 324.608 322.205 328.252L300.224 350.245C296.582 353.888 290.677 353.888 287.035 350.245L265.054 328.252C261.412 324.608 261.412 318.7 265.054 315.057L287.035 293.064C290.677 289.42 296.582 289.42 300.224 293.064ZM289.233 295.263L267.252 317.256C264.824 319.685 264.824 323.624 267.252 326.053L289.233 348.045C291.661 350.475 295.598 350.475 298.026 348.045L320.007 326.053C322.435 323.624 322.435 319.685 320.007 317.256L298.026 295.263C295.598 292.834 291.661 292.834 289.233 295.263ZM274.171 341.725C274.704 342.312 274.704 343.196 274.201 343.782L274.064 343.922L272.913 344.966C272.277 345.544 271.294 345.496 270.718 344.859C270.185 344.272 270.185 343.389 270.688 342.803L270.825 342.663L271.976 341.618C272.612 341.041 273.595 341.089 274.171 341.725ZM313.907 340.719L314.05 340.852L315.122 341.978C315.714 342.6 315.69 343.584 315.068 344.177C314.494 344.723 313.612 344.745 313.014 344.256L312.871 344.123L311.799 342.997C311.207 342.375 311.231 341.39 311.852 340.798C312.426 340.252 313.309 340.23 313.907 340.719ZM299.847 313.879C302.33 313.879 304.36 315.821 304.502 318.27L304.51 318.544V320.099C304.51 322.584 302.568 324.615 300.121 324.757L299.847 324.764H296.738V327.875C296.738 328.734 296.042 329.43 295.184 329.43C294.387 329.43 293.73 328.83 293.64 328.056L293.629 327.875V315.434C293.629 314.636 294.229 313.979 295.002 313.889L295.184 313.879H299.847ZM307.618 313.879C308.415 313.879 309.072 314.479 309.162 315.253L309.172 315.434V327.875C309.172 328.734 308.477 329.43 307.618 329.43C306.821 329.43 306.164 328.83 306.074 328.056L306.064 327.875V315.434C306.064 314.575 306.76 313.879 307.618 313.879ZM286.414 314.633L286.505 314.811L291.945 327.251C292.289 328.038 291.93 328.955 291.144 329.3C290.413 329.619 289.571 329.333 289.179 328.66L289.097 328.498L287.804 325.542H282.356L281.065 328.498C280.72 329.285 279.804 329.644 279.017 329.3C278.287 328.98 277.926 328.166 278.153 327.422L278.216 327.251L283.657 314.811C284.173 313.63 285.788 313.571 286.414 314.633ZM285.081 319.314L283.716 322.432H286.444L285.081 319.314ZM299.847 316.989H296.738V321.654H299.847C300.644 321.654 301.301 321.054 301.39 320.28L301.401 320.099V318.544C301.401 317.685 300.705 316.989 299.847 316.989ZM317.404 300.225C317.936 300.812 317.936 301.695 317.433 302.282L317.297 302.422L316.145 303.466C315.51 304.043 314.527 303.995 313.95 303.359C313.418 302.772 313.417 301.889 313.921 301.303L314.057 301.163L315.208 300.118C315.844 299.541 316.827 299.589 317.404 300.225ZM272.932 298.764L273.078 298.894L274.178 299.993C274.784 300.601 274.784 301.585 274.178 302.193C273.617 302.753 272.736 302.796 272.126 302.322L271.979 302.193L270.88 301.093C270.273 300.485 270.273 299.501 270.88 298.894C271.441 298.333 272.322 298.29 272.932 298.764ZM325.493 284.332C330.214 284.332 334.042 288.161 334.042 292.885C334.042 297.609 330.214 301.438 325.493 301.438C320.771 301.438 316.944 297.609 316.944 292.885C316.944 288.161 320.771 284.332 325.493 284.332ZM325.493 287.442C322.488 287.442 320.053 289.879 320.053 292.885C320.053 295.891 322.488 298.328 325.493 298.328C328.497 298.328 330.933 295.891 330.933 292.885C330.933 289.879 328.497 287.442 325.493 287.442ZM267.437 293.266L267.583 293.395L268.682 294.495C269.289 295.102 269.289 296.087 268.682 296.694C268.122 297.255 267.24 297.298 266.63 296.824L266.484 296.694L265.385 295.595C264.778 294.987 264.778 294.003 265.385 293.395C265.945 292.835 266.827 292.792 267.437 293.266ZM257.103 275.001C262.683 275.001 267.206 279.527 267.206 285.109C267.206 290.692 262.683 295.217 257.103 295.217C251.523 295.217 247 290.692 247 285.109C247 279.527 251.523 275.001 257.103 275.001ZM257.103 278.111C253.24 278.111 250.108 281.244 250.108 285.109C250.108 288.974 253.24 292.107 257.103 292.107C260.966 292.107 264.097 288.974 264.097 285.109C264.097 281.244 260.966 278.111 257.103 278.111Z" fill="white"/>
</g>
</g>
<circle opacity="0.234747" cx="295" cy="409" r="25.5" stroke="#126EFF" stroke-width="5"/>
<path d="M309.5 409C309.5 417.697 302.875 424.5 295 424.5C287.125 424.5 280.5 417.697 280.5 409C280.5 400.303 287.125 393.5 295 393.5C302.875 393.5 309.5 400.303 309.5 409Z" stroke="#126EFF" stroke-width="5"/>
<g filter="url(#filter24_d_1259_4446)">
<mask id="path-53-outside-1_1259_4446" maskUnits="userSpaceOnUse" x="276.606" y="404.925" width="48" height="54" fill="black">
<rect fill="white" x="276.606" y="404.925" width="48" height="54"/>
<path fill-rule="evenodd" clip-rule="evenodd" d="M292.291 436.984L289.221 433.405C287.452 430.961 283.685 430.07 280.804 431.409L281.475 431.097C280.76 431.43 280.417 432.259 280.712 432.947L284.297 441.336C284.865 442.665 286.317 444.546 287.52 445.491C287.52 445.491 295.212 450.889 295.212 452.913V455.476H306.897L309.819 450.192L312.74 455.476H315.661V452.913C315.661 450.889 319.588 444.514 319.588 444.514C320.4 443.275 321.504 441.092 321.504 439.643V428.984C321.451 426.624 318.805 424.712 316.068 424.712C314.699 424.712 313.59 425.668 313.59 426.848V427.702C313.59 425.342 311.371 423.43 308.634 423.43C307.265 423.43 306.156 424.386 306.156 425.567V426.42C306.156 424.06 303.938 422.148 301.201 422.148C299.831 422.148 298.134 423.104 298.134 424.285V425.138C298.134 424.759 298.22 424.458 298.134 424.219V410.57C298.031 409.081 296.345 407.925 294.732 407.925C293.107 407.925 292.291 409.107 292.291 410.566V423.775V436.984ZM301.055 434.342L303.976 434.342V444.909H301.055V434.342V434.342ZM306.897 434.342L309.819 434.342V444.909H306.897V434.342V434.342ZM312.74 434.342L315.661 434.342V444.909H312.74V434.342V434.342Z"/>
</mask>
<path fill-rule="evenodd" clip-rule="evenodd" d="M292.291 436.984L289.221 433.405C287.452 430.961 283.685 430.07 280.804 431.409L281.475 431.097C280.76 431.43 280.417 432.259 280.712 432.947L284.297 441.336C284.865 442.665 286.317 444.546 287.52 445.491C287.52 445.491 295.212 450.889 295.212 452.913V455.476H306.897L309.819 450.192L312.74 455.476H315.661V452.913C315.661 450.889 319.588 444.514 319.588 444.514C320.4 443.275 321.504 441.092 321.504 439.643V428.984C321.451 426.624 318.805 424.712 316.068 424.712C314.699 424.712 313.59 425.668 313.59 426.848V427.702C313.59 425.342 311.371 423.43 308.634 423.43C307.265 423.43 306.156 424.386 306.156 425.567V426.42C306.156 424.06 303.938 422.148 301.201 422.148C299.831 422.148 298.134 423.104 298.134 424.285V425.138C298.134 424.759 298.22 424.458 298.134 424.219V410.57C298.031 409.081 296.345 407.925 294.732 407.925C293.107 407.925 292.291 409.107 292.291 410.566V423.775V436.984ZM301.055 434.342L303.976 434.342V444.909H301.055V434.342V434.342ZM306.897 434.342L309.819 434.342V444.909H306.897V434.342V434.342ZM312.74 434.342L315.661 434.342V444.909H312.74V434.342V434.342Z" fill="white"/>
<path d="M292.291 436.984L290.014 438.937C290.832 439.89 292.156 440.233 293.333 439.797C294.51 439.361 295.291 438.239 295.291 436.984H292.291ZM289.221 433.405L286.79 435.164C286.839 435.231 286.89 435.296 286.944 435.358L289.221 433.405ZM279.539 428.689C278.037 429.388 277.385 431.172 278.083 432.674C278.782 434.177 280.566 434.828 282.069 434.13L279.539 428.689ZM282.74 433.818C284.242 433.119 284.894 431.335 284.196 429.833C283.497 428.33 281.713 427.678 280.211 428.377L282.74 433.818ZM280.712 432.947L277.953 434.126L277.953 434.126L280.712 432.947ZM284.297 441.336L287.055 440.156L287.055 440.156L284.297 441.336ZM287.52 445.491L285.667 447.85C285.709 447.883 285.752 447.915 285.796 447.946L287.52 445.491ZM295.212 455.476H292.212C292.212 457.132 293.556 458.476 295.212 458.476V455.476ZM306.897 455.476V458.476C307.989 458.476 308.995 457.882 309.523 456.927L306.897 455.476ZM309.819 450.192L312.444 448.74C311.916 447.785 310.91 447.192 309.819 447.192C308.727 447.192 307.721 447.785 307.193 448.74L309.819 450.192ZM312.74 455.476L310.114 456.927C310.643 457.882 311.648 458.476 312.74 458.476V455.476ZM315.661 455.476V458.476C317.318 458.476 318.661 457.132 318.661 455.476H315.661ZM319.588 444.514L317.079 442.871C317.064 442.894 317.049 442.917 317.034 442.941L319.588 444.514ZM321.504 428.984H324.504C324.504 428.962 324.503 428.939 324.503 428.917L321.504 428.984ZM310.59 427.702C310.59 429.359 311.933 430.702 313.59 430.702C315.246 430.702 316.59 429.359 316.59 427.702H310.59ZM303.156 426.42C303.156 428.077 304.499 429.42 306.156 429.42C307.813 429.42 309.156 428.077 309.156 426.42H303.156ZM295.134 425.138C295.134 426.795 296.477 428.138 298.134 428.138C299.791 428.138 301.134 426.795 301.134 425.138H295.134ZM298.134 424.219H295.134C295.134 424.567 295.194 424.913 295.313 425.241L298.134 424.219ZM298.134 410.57H301.134C301.134 410.501 301.131 410.433 301.127 410.364L298.134 410.57ZM292.291 410.566H289.291H292.291ZM303.976 434.342H306.976C306.976 433.546 306.66 432.783 306.097 432.22C305.535 431.658 304.772 431.342 303.976 431.342L303.976 434.342ZM303.976 444.909V447.909C305.633 447.909 306.976 446.565 306.976 444.909H303.976ZM301.055 444.909H298.055C298.055 446.565 299.398 447.909 301.055 447.909V444.909ZM301.055 434.342L301.055 431.342C299.398 431.342 298.055 432.685 298.055 434.342H301.055ZM309.819 434.342H312.819C312.819 433.546 312.502 432.783 311.94 432.22C311.377 431.658 310.614 431.342 309.819 431.342L309.819 434.342ZM309.819 444.909V447.909C311.475 447.909 312.819 446.565 312.819 444.909H309.819ZM306.897 444.909H303.897C303.897 446.565 305.24 447.909 306.897 447.909V444.909ZM306.897 434.342L306.897 431.342C305.24 431.342 303.897 432.685 303.897 434.342H306.897ZM315.661 434.342H318.661C318.661 433.546 318.345 432.783 317.782 432.22C317.22 431.658 316.457 431.342 315.661 431.342L315.661 434.342ZM315.661 444.909V447.909C317.318 447.909 318.661 446.565 318.661 444.909H315.661ZM312.74 444.909H309.74C309.74 446.565 311.083 447.909 312.74 447.909V444.909ZM312.74 434.342L312.74 431.342C311.083 431.342 309.74 432.685 309.74 434.342H312.74ZM294.568 435.03L291.498 431.451L286.944 435.358L290.014 438.937L294.568 435.03ZM291.651 431.646C288.974 427.948 283.619 426.792 279.539 428.689L282.069 434.13C283.751 433.348 285.93 433.975 286.79 435.164L291.651 431.646ZM282.069 434.13L282.74 433.818L280.211 428.377L279.539 428.689L282.069 434.13ZM280.211 428.377C278.158 429.331 276.966 431.817 277.953 434.126L283.47 431.768C283.868 432.7 283.362 433.529 282.74 433.818L280.211 428.377ZM277.953 434.126L281.538 442.515L287.055 440.156L283.47 431.768L277.953 434.126ZM281.538 442.515C281.958 443.496 282.623 444.523 283.298 445.394C283.977 446.27 284.81 447.177 285.667 447.85L289.373 443.131C289.026 442.859 288.532 442.354 288.042 441.721C287.549 441.083 287.204 440.505 287.055 440.156L281.538 442.515ZM287.52 445.491C285.796 447.946 285.796 447.946 285.796 447.946C285.796 447.946 285.796 447.946 285.796 447.946C285.796 447.946 285.796 447.946 285.796 447.946C285.796 447.946 285.797 447.947 285.798 447.948C285.801 447.95 285.805 447.953 285.811 447.957C285.824 447.966 285.843 447.979 285.868 447.997C285.92 448.034 285.997 448.089 286.096 448.161C286.295 448.304 286.583 448.513 286.928 448.771C287.623 449.289 288.539 449.992 289.445 450.748C290.368 451.516 291.208 452.279 291.794 452.921C292.09 453.245 292.254 453.467 292.328 453.587C292.45 453.785 292.212 453.506 292.212 452.913H298.212C298.212 451.814 297.734 450.924 297.436 450.439C297.089 449.876 296.652 449.344 296.227 448.878C295.37 447.938 294.288 446.972 293.287 446.138C292.27 445.291 291.262 444.518 290.515 443.961C290.139 443.681 289.826 443.452 289.604 443.293C289.493 443.213 289.405 443.15 289.344 443.106C289.313 443.084 289.289 443.067 289.272 443.055C289.263 443.049 289.257 443.045 289.252 443.041C289.249 443.04 289.247 443.038 289.246 443.037C289.245 443.037 289.245 443.036 289.244 443.036C289.244 443.036 289.244 443.035 289.243 443.035C289.243 443.035 289.243 443.035 287.52 445.491ZM292.212 452.913V455.476H298.212V452.913H292.212ZM295.212 458.476H306.897V452.476H295.212V458.476ZM309.523 456.927L312.444 451.644L307.193 448.74L304.272 454.024L309.523 456.927ZM307.193 451.644L310.114 456.927L315.365 454.024L312.444 448.74L307.193 451.644ZM312.74 458.476H315.661V452.476H312.74V458.476ZM318.661 455.476V452.913H312.661V455.476H318.661ZM318.661 452.913C318.661 453.079 318.663 452.813 319.043 451.902C319.36 451.143 319.803 450.249 320.274 449.363C320.74 448.486 321.209 447.664 321.564 447.057C321.741 446.755 321.888 446.509 321.989 446.34C322.04 446.256 322.08 446.191 322.106 446.148C322.119 446.126 322.129 446.11 322.135 446.1C322.138 446.095 322.14 446.092 322.142 446.09C322.142 446.088 322.143 446.088 322.143 446.087C322.143 446.087 322.143 446.087 322.143 446.087C322.143 446.087 322.143 446.087 322.143 446.087C322.143 446.088 322.143 446.088 319.588 444.514C317.034 442.941 317.034 442.941 317.034 442.941C317.034 442.941 317.034 442.941 317.034 442.942C317.033 442.942 317.033 442.943 317.033 442.943C317.032 442.945 317.031 442.946 317.03 442.948C317.027 442.952 317.024 442.958 317.019 442.965C317.011 442.979 316.998 442.999 316.983 443.025C316.951 443.076 316.907 443.15 316.85 443.244C316.737 443.432 316.577 443.7 316.385 444.027C316.004 444.679 315.492 445.576 314.976 446.546C314.465 447.507 313.926 448.586 313.506 449.592C313.15 450.446 312.661 451.735 312.661 452.913H318.661ZM322.098 446.158C322.59 445.407 323.155 444.397 323.608 443.338C324.029 442.355 324.504 440.99 324.504 439.643H318.504C318.504 439.637 318.504 439.671 318.491 439.749C318.479 439.825 318.458 439.927 318.423 440.055C318.353 440.315 318.241 440.628 318.092 440.977C317.791 441.681 317.398 442.383 317.079 442.871L322.098 446.158ZM324.504 439.643V428.984H318.504V439.643H324.504ZM324.503 428.917C324.451 426.584 323.131 424.741 321.616 423.58C320.089 422.412 318.104 421.712 316.068 421.712V427.712C316.769 427.712 317.475 427.967 317.969 428.345C318.474 428.731 318.504 429.024 318.504 429.051L324.503 428.917ZM316.068 421.712C313.475 421.712 310.59 423.609 310.59 426.848H316.59C316.59 427.243 316.397 427.504 316.274 427.609C316.158 427.71 316.076 427.712 316.068 427.712V421.712ZM310.59 426.848V427.702H316.59V426.848H310.59ZM316.59 427.702C316.59 423.283 312.595 420.43 308.634 420.43V426.43C309.31 426.43 309.847 426.667 310.179 426.953C310.506 427.234 310.59 427.508 310.59 427.702H316.59ZM308.634 420.43C306.041 420.43 303.156 422.327 303.156 425.567H309.156C309.156 425.961 308.963 426.222 308.841 426.328C308.725 426.428 308.642 426.43 308.634 426.43V420.43ZM303.156 425.567V426.42H309.156V425.567H303.156ZM309.156 426.42C309.156 422.002 305.162 419.148 301.201 419.148V425.148C301.876 425.148 302.413 425.385 302.746 425.671C303.072 425.953 303.156 426.226 303.156 426.42H309.156ZM301.201 419.148C299.894 419.148 298.566 419.579 297.52 420.257C296.568 420.876 295.134 422.203 295.134 424.285H301.134C301.134 424.736 300.967 425.047 300.871 425.183C300.783 425.308 300.73 425.327 300.787 425.29C300.837 425.258 300.921 425.215 301.025 425.183C301.074 425.169 301.117 425.159 301.151 425.154C301.185 425.148 301.202 425.148 301.201 425.148V419.148ZM295.134 424.285V425.138H301.134V424.285H295.134ZM301.134 425.138C301.134 425.156 301.133 425.153 301.136 425.106C301.139 425.079 301.141 425.054 301.145 425.007C301.149 424.966 301.154 424.904 301.159 424.838C301.172 424.646 301.23 423.957 300.954 423.196L295.313 425.241C295.211 424.959 295.184 424.723 295.176 424.589C295.172 424.522 295.172 424.471 295.173 424.444C295.173 424.418 295.174 424.405 295.174 424.414C295.173 424.424 295.172 424.441 295.168 424.481C295.165 424.514 295.16 424.572 295.155 424.631C295.145 424.754 295.134 424.932 295.134 425.138H301.134ZM301.134 424.219V410.57H295.134V424.219H301.134ZM301.127 410.364C300.999 408.511 299.915 407.123 298.795 406.286C297.666 405.442 296.217 404.925 294.732 404.925V410.925C294.782 410.925 294.863 410.935 294.962 410.969C295.062 411.002 295.146 411.049 295.204 411.092C295.263 411.137 295.264 411.153 295.239 411.113C295.21 411.067 295.153 410.95 295.141 410.775L301.127 410.364ZM294.732 404.925C293.129 404.925 291.651 405.542 290.619 406.753C289.643 407.899 289.291 409.307 289.291 410.566L295.291 410.566C295.291 410.366 295.348 410.454 295.186 410.644C295.101 410.744 294.988 410.828 294.869 410.88C294.754 410.931 294.694 410.925 294.732 410.925V404.925ZM289.291 410.566V423.775H295.291V410.566H289.291ZM289.291 423.775V436.984H295.291V423.775H289.291ZM301.055 437.342L303.976 437.342L303.976 431.342L301.055 431.342L301.055 437.342ZM300.976 434.342V444.909H306.976V434.342H300.976ZM303.976 441.909H301.055V447.909H303.976V441.909ZM304.055 444.909V434.342H298.055V444.909H304.055ZM306.897 437.342L309.819 437.342L309.819 431.342L306.897 431.342L306.897 437.342ZM306.819 434.342V444.909H312.819V434.342H306.819ZM309.819 441.909H306.897V447.909H309.819V441.909ZM309.897 444.909V434.342H303.897V444.909H309.897ZM312.74 437.342L315.661 437.342L315.661 431.342L312.74 431.342L312.74 437.342ZM312.661 434.342V444.909H318.661V434.342H312.661ZM315.661 441.909H312.74V447.909H315.661V441.909ZM315.74 444.909V434.342H309.74V444.909H315.74Z" fill="black" mask="url(#path-53-outside-1_1259_4446)"/>
</g>
<mask id="mask12_1259_4446" style="mask-type:alpha" maskUnits="userSpaceOnUse" x="40" y="148" width="111" height="112">
<ellipse cx="95.5732" cy="204.02" rx="55.0634" ry="55.0915" fill="#02BAFF"/>
</mask>
<g mask="url(#mask12_1259_4446)">
<g clip-path="url(#clip8_1259_4446)">
<rect width="110.127" height="203.415" transform="translate(40.5082 82.1367)" fill="#01C6FF"/>
<g filter="url(#filter25_f_1259_4446)">
<mask id="mask13_1259_4446" style="mask-type:alpha" maskUnits="userSpaceOnUse" x="18" y="82" width="213" height="192">
<rect x="230.699" y="82.1367" width="191.132" height="212.317" rx="5.36681" transform="rotate(90 230.699 82.1367)" fill="#189EFF"/>
</mask>
<g mask="url(#mask13_1259_4446)">
<g filter="url(#filter26_f_1259_4446)">
<ellipse cx="160.097" cy="120.798" rx="73.0293" ry="73.0292" transform="rotate(-180 160.097 120.798)" fill="#0176FF"/>
</g>
<g filter="url(#filter27_f_1259_4446)">
<ellipse cx="32.0247" cy="206.864" rx="73.0293" ry="73.0292" transform="rotate(-180 32.0247 206.864)" fill="#0176FF"/>
</g>
<g filter="url(#filter28_f_1259_4446)">
<ellipse cx="59.0496" cy="93.1866" rx="73.0293" ry="73.0292" transform="rotate(-180 59.0496 93.1866)" fill="#01C6FF"/>
</g>
</g>
</g>
<line x1="124.876" y1="258.763" x2="156.05" y2="314.642" stroke="#189EFF" stroke-width="0.588197"/>
</g>
</g>
<path fill-rule="evenodd" clip-rule="evenodd" d="M73.5 180C73.9506 180 74.3483 180.254 74.5033 180.629L74.5394 180.734L75.675 184.846L124.928 184.847C125.549 184.847 126.03 185.32 125.998 185.866L125.985 185.976L121.699 209.241C121.626 209.642 121.284 209.955 120.852 210.032L120.732 210.048L82.8642 212.902L81.0215 217.907L81.0117 217.905H81.0096L81.0074 217.904H81.0064L81.0085 217.905L81.0053 217.904L80.9989 217.903L81.0021 217.904H81.0042L81.2395 217.952C82.3728 218.21 83.3627 218.795 84.0796 219.589L84.2303 219.764L84.2144 219.745H108.857L108.855 219.745L108.852 219.75L108.84 219.764L108.99 219.591C109.972 218.502 111.468 217.806 113.143 217.806C116.101 217.806 118.5 219.976 118.5 222.653C118.5 225.33 116.101 227.5 113.143 227.5C110.184 227.5 107.786 225.33 107.786 222.653C107.786 222.401 107.807 222.153 107.848 221.912L107.893 221.684L85.1774 221.683L85.2233 221.912C85.2644 222.153 85.2856 222.401 85.2856 222.653C85.2856 225.33 82.8872 227.5 79.9285 227.5C76.9699 227.5 74.5714 225.33 74.5714 222.653C74.5714 220.41 76.2553 218.523 78.5418 217.97L78.7552 217.923L80.9563 211.951L72.6634 181.939H67.0714C66.4797 181.939 66 181.505 66 180.969C66 180.472 66.4136 180.063 66.9465 180.007L67.0714 180H73.5ZM79.925 219.746C78.1498 219.746 76.7108 221.048 76.7108 222.654C76.7108 224.26 78.1498 225.562 79.925 225.562C81.7002 225.562 83.1393 224.26 83.1393 222.654C83.1393 221.048 81.7002 219.746 79.925 219.746ZM113.145 219.746C111.37 219.746 109.931 221.048 109.931 222.654C109.931 224.26 111.37 225.562 113.145 225.562C114.92 225.562 116.359 224.26 116.359 222.654C116.359 221.048 114.92 219.746 113.145 219.746ZM80.7856 217.87L80.9741 217.901L80.8605 217.881L80.7856 217.87ZM80.44 217.828C80.4773 217.831 80.5145 217.835 80.5512 217.839L80.44 217.828ZM79.9252 217.804L79.7398 217.807L79.6595 217.81L79.9252 217.804ZM123.663 186.787L76.2099 186.786L82.8892 210.956L119.722 208.18L123.663 186.787ZM114.217 200.356C114.809 200.356 115.289 200.79 115.289 201.326C115.289 201.861 114.809 202.295 114.217 202.295H86.3604C85.7687 202.295 85.289 201.861 85.289 201.326C85.289 200.79 85.7687 200.356 86.3604 200.356H114.217ZM84.216 192.604H116.359C116.95 192.604 117.43 193.038 117.43 193.573C117.43 194.07 117.017 194.48 116.484 194.536L116.359 194.542H84.216C83.6243 194.542 83.1446 194.108 83.1446 193.573C83.1446 193.076 83.5582 192.666 84.0911 192.61L84.216 192.604H116.359H84.216Z" fill="white"/>
</g>
<defs>
<filter id="filter0_f_1259_4446" x="115.583" y="-48.27" width="282.521" height="261.336" filterUnits="userSpaceOnUse" color-interpolation-filters="sRGB">
<feFlood flood-opacity="0" result="BackgroundImageFix"/>
<feBlend mode="normal" in="SourceGraphic" in2="BackgroundImageFix" result="shape"/>
<feGaussianBlur stdDeviation="17.551" result="effect1_foregroundBlur_1259_4446"/>
</filter>
<filter id="filter1_f_1259_4446" x="164.398" y="-102.509" width="256.004" height="256.004" filterUnits="userSpaceOnUse" color-interpolation-filters="sRGB">
<feFlood flood-opacity="0" result="BackgroundImageFix"/>
<feBlend mode="normal" in="SourceGraphic" in2="BackgroundImageFix" result="shape"/>
<feGaussianBlur stdDeviation="27.4863" result="effect1_foregroundBlur_1259_4446"/>
</filter>
<filter id="filter2_f_1259_4446" x="36.3255" y="-16.4433" width="256.004" height="256.004" filterUnits="userSpaceOnUse" color-interpolation-filters="sRGB">
<feFlood flood-opacity="0" result="BackgroundImageFix"/>
<feBlend mode="normal" in="SourceGraphic" in2="BackgroundImageFix" result="shape"/>
<feGaussianBlur stdDeviation="27.4863" result="effect1_foregroundBlur_1259_4446"/>
</filter>
<filter id="filter3_f_1259_4446" x="63.351" y="-130.12" width="256.004" height="256.004" filterUnits="userSpaceOnUse" color-interpolation-filters="sRGB">
<feFlood flood-opacity="0" result="BackgroundImageFix"/>
<feBlend mode="normal" in="SourceGraphic" in2="BackgroundImageFix" result="shape"/>
<feGaussianBlur stdDeviation="27.4863" result="effect1_foregroundBlur_1259_4446"/>
</filter>
<filter id="filter4_f_1259_4446" x="-48.8332" y="199.405" width="282.521" height="261.336" filterUnits="userSpaceOnUse" color-interpolation-filters="sRGB">
<feFlood flood-opacity="0" result="BackgroundImageFix"/>
<feBlend mode="normal" in="SourceGraphic" in2="BackgroundImageFix" result="shape"/>
<feGaussianBlur stdDeviation="17.551" result="effect1_foregroundBlur_1259_4446"/>
</filter>
<filter id="filter5_f_1259_4446" x="-0.0179749" y="145.166" width="256.004" height="256.004" filterUnits="userSpaceOnUse" color-interpolation-filters="sRGB">
<feFlood flood-opacity="0" result="BackgroundImageFix"/>
<feBlend mode="normal" in="SourceGraphic" in2="BackgroundImageFix" result="shape"/>
<feGaussianBlur stdDeviation="27.4863" result="effect1_foregroundBlur_1259_4446"/>
</filter>
<filter id="filter6_f_1259_4446" x="-128.091" y="231.232" width="256.004" height="256.004" filterUnits="userSpaceOnUse" color-interpolation-filters="sRGB">
<feFlood flood-opacity="0" result="BackgroundImageFix"/>
<feBlend mode="normal" in="SourceGraphic" in2="BackgroundImageFix" result="shape"/>
<feGaussianBlur stdDeviation="27.4863" result="effect1_foregroundBlur_1259_4446"/>
</filter>
<filter id="filter7_f_1259_4446" x="-101.066" y="117.555" width="256.004" height="256.004" filterUnits="userSpaceOnUse" color-interpolation-filters="sRGB">
<feFlood flood-opacity="0" result="BackgroundImageFix"/>
<feBlend mode="normal" in="SourceGraphic" in2="BackgroundImageFix" result="shape"/>
<feGaussianBlur stdDeviation="27.4863" result="effect1_foregroundBlur_1259_4446"/>
</filter>
<filter id="filter8_f_1259_4446" x="285.521" y="-42.3881" width="282.521" height="261.336" filterUnits="userSpaceOnUse" color-interpolation-filters="sRGB">
<feFlood flood-opacity="0" result="BackgroundImageFix"/>
<feBlend mode="normal" in="SourceGraphic" in2="BackgroundImageFix" result="shape"/>
<feGaussianBlur stdDeviation="17.551" result="effect1_foregroundBlur_1259_4446"/>
</filter>
<filter id="filter9_f_1259_4446" x="334.336" y="-96.6269" width="256.004" height="256.004" filterUnits="userSpaceOnUse" color-interpolation-filters="sRGB">
<feFlood flood-opacity="0" result="BackgroundImageFix"/>
<feBlend mode="normal" in="SourceGraphic" in2="BackgroundImageFix" result="shape"/>
<feGaussianBlur stdDeviation="27.4863" result="effect1_foregroundBlur_1259_4446"/>
</filter>
<filter id="filter10_f_1259_4446" x="206.263" y="-10.5605" width="256.004" height="256.004" filterUnits="userSpaceOnUse" color-interpolation-filters="sRGB">
<feFlood flood-opacity="0" result="BackgroundImageFix"/>
<feBlend mode="normal" in="SourceGraphic" in2="BackgroundImageFix" result="shape"/>
<feGaussianBlur stdDeviation="27.4863" result="effect1_foregroundBlur_1259_4446"/>
</filter>
<filter id="filter11_f_1259_4446" x="233.288" y="-124.238" width="256.004" height="256.004" filterUnits="userSpaceOnUse" color-interpolation-filters="sRGB">
<feFlood flood-opacity="0" result="BackgroundImageFix"/>
<feBlend mode="normal" in="SourceGraphic" in2="BackgroundImageFix" result="shape"/>
<feGaussianBlur stdDeviation="27.4863" result="effect1_foregroundBlur_1259_4446"/>
</filter>
<filter id="filter12_f_1259_4446" x="395.486" y="58.8042" width="282.521" height="261.336" filterUnits="userSpaceOnUse" color-interpolation-filters="sRGB">
<feFlood flood-opacity="0" result="BackgroundImageFix"/>
<feBlend mode="normal" in="SourceGraphic" in2="BackgroundImageFix" result="shape"/>
<feGaussianBlur stdDeviation="17.551" result="effect1_foregroundBlur_1259_4446"/>
</filter>
<filter id="filter13_f_1259_4446" x="444.301" y="4.56548" width="256.004" height="256.004" filterUnits="userSpaceOnUse" color-interpolation-filters="sRGB">
<feFlood flood-opacity="0" result="BackgroundImageFix"/>
<feBlend mode="normal" in="SourceGraphic" in2="BackgroundImageFix" result="shape"/>
<feGaussianBlur stdDeviation="27.4863" result="effect1_foregroundBlur_1259_4446"/>
</filter>
<filter id="filter14_f_1259_4446" x="316.23" y="90.6319" width="256.004" height="256.004" filterUnits="userSpaceOnUse" color-interpolation-filters="sRGB">
<feFlood flood-opacity="0" result="BackgroundImageFix"/>
<feBlend mode="normal" in="SourceGraphic" in2="BackgroundImageFix" result="shape"/>
<feGaussianBlur stdDeviation="27.4863" result="effect1_foregroundBlur_1259_4446"/>
</filter>
<filter id="filter15_f_1259_4446" x="343.253" y="-23.0458" width="256.004" height="256.004" filterUnits="userSpaceOnUse" color-interpolation-filters="sRGB">
<feFlood flood-opacity="0" result="BackgroundImageFix"/>
<feBlend mode="normal" in="SourceGraphic" in2="BackgroundImageFix" result="shape"/>
<feGaussianBlur stdDeviation="27.4863" result="effect1_foregroundBlur_1259_4446"/>
</filter>
<filter id="filter16_f_1259_4446" x="430.762" y="196.47" width="282.521" height="261.336" filterUnits="userSpaceOnUse" color-interpolation-filters="sRGB">
<feFlood flood-opacity="0" result="BackgroundImageFix"/>
<feBlend mode="normal" in="SourceGraphic" in2="BackgroundImageFix" result="shape"/>
<feGaussianBlur stdDeviation="17.551" result="effect1_foregroundBlur_1259_4446"/>
</filter>
<filter id="filter17_f_1259_4446" x="479.577" y="142.231" width="256.004" height="256.004" filterUnits="userSpaceOnUse" color-interpolation-filters="sRGB">
<feFlood flood-opacity="0" result="BackgroundImageFix"/>
<feBlend mode="normal" in="SourceGraphic" in2="BackgroundImageFix" result="shape"/>
<feGaussianBlur stdDeviation="27.4863" result="effect1_foregroundBlur_1259_4446"/>
</filter>
<filter id="filter18_f_1259_4446" x="351.504" y="228.298" width="256.004" height="256.004" filterUnits="userSpaceOnUse" color-interpolation-filters="sRGB">
<feFlood flood-opacity="0" result="BackgroundImageFix"/>
<feBlend mode="normal" in="SourceGraphic" in2="BackgroundImageFix" result="shape"/>
<feGaussianBlur stdDeviation="27.4863" result="effect1_foregroundBlur_1259_4446"/>
</filter>
<filter id="filter19_f_1259_4446" x="378.53" y="114.62" width="256.004" height="256.004" filterUnits="userSpaceOnUse" color-interpolation-filters="sRGB">
<feFlood flood-opacity="0" result="BackgroundImageFix"/>
<feBlend mode="normal" in="SourceGraphic" in2="BackgroundImageFix" result="shape"/>
<feGaussianBlur stdDeviation="27.4863" result="effect1_foregroundBlur_1259_4446"/>
</filter>
<filter id="filter20_f_1259_4446" x="108.814" y="64.9607" width="462.527" height="427.845" filterUnits="userSpaceOnUse" color-interpolation-filters="sRGB">
<feFlood flood-opacity="0" result="BackgroundImageFix"/>
<feBlend mode="normal" in="SourceGraphic" in2="BackgroundImageFix" result="shape"/>
<feGaussianBlur stdDeviation="28.7335" result="effect1_foregroundBlur_1259_4446"/>
</filter>
<filter id="filter21_f_1259_4446" x="188.729" y="-23.8349" width="419.115" height="419.115" filterUnits="userSpaceOnUse" color-interpolation-filters="sRGB">
<feFlood flood-opacity="0" result="BackgroundImageFix"/>
<feBlend mode="normal" in="SourceGraphic" in2="BackgroundImageFix" result="shape"/>
<feGaussianBlur stdDeviation="44.999" result="effect1_foregroundBlur_1259_4446"/>
</filter>
<filter id="filter22_f_1259_4446" x="-20.9417" y="117.066" width="419.115" height="419.115" filterUnits="userSpaceOnUse" color-interpolation-filters="sRGB">
<feFlood flood-opacity="0" result="BackgroundImageFix"/>
<feBlend mode="normal" in="SourceGraphic" in2="BackgroundImageFix" result="shape"/>
<feGaussianBlur stdDeviation="44.999" result="effect1_foregroundBlur_1259_4446"/>
</filter>
<filter id="filter23_f_1259_4446" x="23.3021" y="-69.04" width="419.115" height="419.115" filterUnits="userSpaceOnUse" color-interpolation-filters="sRGB">
<feFlood flood-opacity="0" result="BackgroundImageFix"/>
<feBlend mode="normal" in="SourceGraphic" in2="BackgroundImageFix" result="shape"/>
<feGaussianBlur stdDeviation="44.999" result="effect1_foregroundBlur_1259_4446"/>
</filter>
<filter id="filter24_d_1259_4446" x="264.569" y="396.237" width="72.9663" height="79.6141" filterUnits="userSpaceOnUse" color-interpolation-filters="sRGB">
<feFlood flood-opacity="0" result="BackgroundImageFix"/>
<feColorMatrix in="SourceAlpha" type="matrix" values="0 0 0 0 0 0 0 0 0 0 0 0 0 0 0 0 0 0 127 0" result="hardAlpha"/>
<feOffset dy="4.34389"/>
<feGaussianBlur stdDeviation="6.51583"/>
<feColorMatrix type="matrix" values="0 0 0 0 0 0 0 0 0 0 0 0 0 0 0 0 0 0 0.2 0"/>
<feBlend mode="normal" in2="BackgroundImageFix" result="effect1_dropShadow_1259_4446"/>
<feBlend mode="normal" in="SourceGraphic" in2="effect1_dropShadow_1259_4446" result="shape"/>
</filter>
<filter id="filter25_f_1259_4446" x="-16.7195" y="47.0347" width="282.521" height="261.336" filterUnits="userSpaceOnUse" color-interpolation-filters="sRGB">
<feFlood flood-opacity="0" result="BackgroundImageFix"/>
<feBlend mode="normal" in="SourceGraphic" in2="BackgroundImageFix" result="shape"/>
<feGaussianBlur stdDeviation="17.551" result="effect1_foregroundBlur_1259_4446"/>
</filter>
<filter id="filter26_f_1259_4446" x="32.0947" y="-7.20405" width="256.004" height="256.004" filterUnits="userSpaceOnUse" color-interpolation-filters="sRGB">
<feFlood flood-opacity="0" result="BackgroundImageFix"/>
<feBlend mode="normal" in="SourceGraphic" in2="BackgroundImageFix" result="shape"/>
<feGaussianBlur stdDeviation="27.4863" result="effect1_foregroundBlur_1259_4446"/>
</filter>
<filter id="filter27_f_1259_4446" x="-95.9771" y="78.8624" width="256.004" height="256.004" filterUnits="userSpaceOnUse" color-interpolation-filters="sRGB">
<feFlood flood-opacity="0" result="BackgroundImageFix"/>
<feBlend mode="normal" in="SourceGraphic" in2="BackgroundImageFix" result="shape"/>
<feGaussianBlur stdDeviation="27.4863" result="effect1_foregroundBlur_1259_4446"/>
</filter>
<filter id="filter28_f_1259_4446" x="-68.9523" y="-34.8154" width="256.004" height="256.004" filterUnits="userSpaceOnUse" color-interpolation-filters="sRGB">
<feFlood flood-opacity="0" result="BackgroundImageFix"/>
<feBlend mode="normal" in="SourceGraphic" in2="BackgroundImageFix" result="shape"/>
<feGaussianBlur stdDeviation="27.4863" result="effect1_foregroundBlur_1259_4446"/>
</filter>
<linearGradient id="paint0_linear_1259_4446" x1="566.247" y1="100.005" x2="554.031" y2="367.748" gradientUnits="userSpaceOnUse">
<stop stop-color="#0085FF"/>
<stop offset="1" stop-color="#C0E2F5"/>
</linearGradient>
<clipPath id="clip0_1259_4446">
<rect width="603" height="521" fill="white"/>
</clipPath>
<clipPath id="clip1_1259_4446">
<rect width="110.127" height="203.415" fill="white" transform="translate(172.814 -13.1689)"/>
</clipPath>
<clipPath id="clip2_1259_4446">
<rect width="26.7909" height="26.8236" fill="white" transform="matrix(0.999984 -1.291e-10 -3.05527e-05 1.00002 188.001 98.9375)"/>
</clipPath>
<clipPath id="clip3_1259_4446">
<rect width="110.127" height="203.415" fill="white" transform="translate(8.3941 234.508)"/>
</clipPath>
<clipPath id="clip4_1259_4446">
<rect width="110.127" height="203.415" fill="white" transform="translate(342.749 -7.28516)"/>
</clipPath>
<clipPath id="clip5_1259_4446">
<rect width="110.127" height="203.415" fill="white" transform="translate(452.713 93.9062)"/>
</clipPath>
<clipPath id="clip6_1259_4446">
<rect width="110.127" height="203.415" fill="white" transform="translate(487.992 231.572)"/>
</clipPath>
<clipPath id="clip7_1259_4446">
<rect width="180.293" height="333.019" fill="white" transform="translate(202.505 122.428)"/>
</clipPath>
<clipPath id="clip8_1259_4446">
<rect width="110.127" height="203.415" fill="white" transform="translate(40.5082 82.1367)"/>
</clipPath>
</defs>
</svg>
