<?xml version="1.0" encoding="UTF-8"?>
<!-- Generator: visioncortex VTracer 0.6.3 -->
<svg version="1.1" xmlns="http://www.w3.org/2000/svg" width="1280" height="730">
<path d="M0 0 C1.69 2.37 1.69 2.37 3 5 C3.84 6.11 3.84 6.11 4.69 7.25 C6.97 12.03 6.66 16.46 5.34 21.52 C3.07 27.88 -0.38 32.18 -5 37 C-6.21 38.41 -7.42 39.83 -8.62 41.25 C-11.21 44.21 -13.86 46.62 -17 49 C-18.32 50.14 -19.63 51.28 -20.94 52.44 C-24.25 55.35 -27.6 58.19 -31 61 C-31.79 61.68 -31.79 61.68 -32.6 62.38 C-35.06 64.5 -36.88 65.96 -40 67 C-41.68 68.65 -43.35 70.32 -45 72 C-47.22 73.88 -49.51 75.66 -51.81 77.44 C-52.43 77.92 -53.06 78.41 -53.7 78.91 C-57.43 81.81 -61.2 84.66 -65 87.47 C-67.6 89.46 -70.11 91.54 -72.62 93.62 C-75.51 96.01 -78.36 98.34 -81.5 100.38 C-83.97 101.86 -83.97 101.86 -85.62 103.62 C-87.25 105.25 -88.96 105.98 -91 107 C-92.52 110.04 -92.37 113.28 -92.56 116.62 C-92.61 117.33 -92.65 118.04 -92.69 118.77 C-92.8 120.51 -92.9 122.26 -93 124 C-91.22 123.6 -91.22 123.6 -89.41 123.2 C-87.82 122.84 -86.22 122.48 -84.62 122.12 C-83.8 121.94 -82.98 121.76 -82.14 121.57 C-76.99 120.42 -71.84 119.34 -66.65 118.39 C-64.97 118.15 -64.97 118.15 -64 117 C-62.48 116.68 -60.95 116.41 -59.41 116.15 C-52.72 114.98 -46.1 113.52 -39.47 112.02 C-37.44 111.56 -35.4 111.11 -33.36 110.65 C-26.82 109.18 -20.36 107.63 -14 105.5 C-11.14 104.79 -8.79 105.19 -6 106 C-6.46 111.35 -7.93 115.65 -10.06 120.57 C-11.01 123.04 -11.56 125.4 -12 128 C-10.84 127.62 -10.84 127.62 -9.66 127.24 C-2.46 125.13 1.29 124.59 8 128 C8.91 128.29 9.82 128.58 10.75 128.88 C14.55 130.77 16.28 133.22 17.87 137.13 C19.75 143.71 18.33 148.17 15.65 154.34 C12.58 159.29 8.5 161.45 3.19 163.56 C2.14 163.98 1.08 164.4 0 164.84 C-0.99 165.22 -1.98 165.6 -3 166 C-3.76 166.3 -4.53 166.6 -5.31 166.91 C-9.48 168.53 -13.7 169.79 -18 171 C-20.27 171.75 -22.54 172.51 -24.79 173.32 C-27 174 -27 174 -30.81 174.44 C-34.21 175.69 -34.21 175.69 -35.32 178.79 C-36.34 181.84 -37.23 184.88 -38 188 C-29.69 189.38 -21.39 190.45 -13.01 191.3 C-9.85 191.63 -7.02 191.99 -4 193 C-2.6 193.2 -1.2 193.36 0.21 193.5 C1.04 193.58 1.87 193.66 2.72 193.75 C4.03 193.87 4.03 193.87 5.38 194 C6.27 194.09 7.16 194.18 8.08 194.27 C14.3 194.87 20.52 195.37 26.76 195.75 C29 196 29 196 30 197 C32.02 197.16 34.04 197.28 36.06 197.38 C41.65 197.75 45.92 198.71 51 201 C47.44 206.09 43.95 210.23 39 214 C43.19 213.48 46.82 212.36 50.75 210.85 C54.66 209.37 58.61 208 62.56 206.62 C63.44 206.32 64.31 206.01 65.22 205.7 C76.16 201.89 87.15 198.23 98.22 194.81 C102.25 193.56 106.26 192.24 110.25 190.88 C114.24 189.52 118.22 188.42 122.31 187.44 C126.84 186.35 130.78 184.94 135 183 C139.33 181.38 143.42 180.63 148 180 C148.33 179.67 148.66 179.34 149 179 C155.88 178.18 161.32 178.99 167 183 C171.53 186.69 174.97 190.07 176 196 C176.58 203.02 176.22 208.68 173 215 C170.5 217.38 170.5 217.38 168 219 C166.51 219.99 166.51 219.99 165 221 C163.68 221 162.36 221 161 221 C161 221.66 161 222.32 161 223 C159.95 223.25 158.9 223.5 157.81 223.75 C154.11 224.67 150.5 225.78 146.88 226.94 C141.07 228.75 135.25 230.1 129.29 231.29 C125.8 232.04 122.42 232.99 119 234 C110.21 236.47 101.52 238.59 92.54 240.19 C89.84 240.81 87.59 241.5 85.05 242.5 C81.15 244.03 77.26 244.77 73.12 245.38 C66.94 246.37 61.01 247.74 55 249.5 C47.64 251.65 40.31 253.14 32.75 254.38 C25.37 255.1 25.37 255.1 19 258 C16.67 258.35 14.34 258.68 12 259 C10.66 259.33 9.33 259.66 8 260 C6.98 260.21 5.96 260.43 4.91 260.65 C3.78 260.89 2.66 261.13 1.5 261.38 C0.38 261.61 -0.75 261.84 -1.91 262.09 C-4.92 262.98 -6.66 263.95 -9 266 C-8.67 266.99 -8.34 267.98 -8 269 C-5.98 269.73 -5.98 269.73 -4 270 C-4 270.66 -4 271.32 -4 272 C-3.15 272.25 -2.31 272.5 -1.44 272.75 C1.68 273.88 4.31 275.3 7.15 277 C9.06 278.03 10.94 278.74 13 279.44 C16.66 280.72 19.34 282.6 22.41 284.94 C24.51 286.34 26.53 286.6 29 287 C29.55 287.42 30.09 287.83 30.66 288.26 C33.85 290.63 37.29 292.4 40.81 294.25 C41.93 294.84 41.93 294.84 43.07 295.44 C55.24 301.88 55.24 301.88 68 307 C68.69 309.06 68.69 309.06 69 311 C67.11 312.13 65.21 313.25 63.31 314.38 C62.26 315 61.2 315.63 60.11 316.27 C57.44 317.76 54.85 318.9 52 320 C49.51 321.43 49.51 321.43 47.04 322.9 C44.71 324.15 42.31 325.14 39.88 326.17 C36.77 327.55 33.8 329.18 30.81 330.81 C24.27 334.34 17.67 337.72 11 341 C11 341.99 11 342.98 11 344 C11.72 343.97 12.44 343.93 13.18 343.89 C24.94 343.59 36.33 345.58 47.82 347.97 C48.53 348.12 49.23 348.26 49.96 348.41 C53.34 349.39 56.05 351.11 59 353 C59 353.66 59 354.32 59 355 C59.99 355.33 60.98 355.66 62 356 C66.6 361.52 66.89 367.26 66.71 374.32 C65.71 379.5 63.43 381.93 59.55 385.36 C55.26 388.11 51.11 389.44 46 389 C45.67 388.67 45.34 388.34 45 388 C41.57 387.55 38.14 387.18 34.7 386.84 C29.64 386.29 24.91 385.33 20 384 C26.94 392.88 26.94 392.88 35.01 400.71 C36.09 401.63 36.09 401.63 37.19 402.56 C38.2 403.4 38.2 403.4 39.23 404.25 C41.07 406.07 41.89 407.7 43 410 C43.66 410.33 44.32 410.66 45 411 C45 411.99 45 412.98 45 414 C46.65 414.33 48.3 414.66 50 415 C50.56 416.94 50.56 416.94 51 419 C49.22 420.78 46.54 420.34 44.12 420.5 C40.81 420.72 38.16 420.95 35 422 C31.91 422.31 28.81 422.51 25.71 422.72 C23.04 422.83 23.04 422.83 21 424 C19.58 424.14 18.15 424.23 16.72 424.28 C15.88 424.32 15.04 424.36 14.17 424.39 C12.39 424.46 10.61 424.54 8.83 424.61 C7.99 424.64 7.15 424.68 6.28 424.72 C5.51 424.75 4.74 424.78 3.94 424.81 C1.92 424.89 1.92 424.89 0 426 C-3.08 426.32 -6.16 426.51 -9.25 426.72 C-11.96 426.83 -11.96 426.83 -14 428 C-17.73 428.28 -21.46 428.45 -25.2 428.62 C-28.77 428.98 -31.66 429.72 -35 431 C-31.83 434.64 -28.86 436.12 -24.38 437.81 C-23.73 438.06 -23.08 438.31 -22.42 438.56 C-21.02 439.1 -19.63 439.63 -18.23 440.16 C-15.1 441.34 -11.98 442.56 -8.86 443.77 C-7.32 444.37 -5.79 444.96 -4.26 445.55 C2.31 448.09 8.72 450.8 15 454 C16.69 454.86 18.37 455.71 20.06 456.56 C20.88 456.98 21.69 457.39 22.54 457.82 C24.19 458.61 25.87 459.35 27.58 460.03 C29.71 460.89 31.67 461.85 33.69 462.94 C37.56 464.92 41.48 466.1 45.66 467.28 C48.65 468.2 51.31 469.41 54 471 C54.33 471.66 54.66 472.32 55 473 C57.04 473.69 59.09 474.38 61.14 475.04 C72.69 478.94 85.89 483.77 92 495 C92.33 495.33 92.66 495.66 93 496 C93.18 498.41 93.28 500.77 93.31 503.19 C93.37 505.16 93.37 505.16 93.43 507.17 C92.79 512.9 90.25 515.83 86.12 519.69 C80.67 523.72 76.88 525.69 70 525 C59.21 522.96 49.35 516.91 39.79 511.72 C38.38 510.96 36.97 510.2 35.56 509.44 C34.87 509.06 34.17 508.69 33.46 508.3 C27.62 505.2 21.62 502.65 15.44 500.29 C11.96 498.94 9.52 497.75 7 495 C5.14 494.21 5.14 494.21 3.06 493.69 C-2.97 491.84 -8.43 488.91 -14 486 C-13.62 491.72 -11.74 495.98 -9.28 501.13 C-7.42 505.3 -6.18 509.6 -5 514 C-7.93 515.46 -9.4 514.38 -12.5 513.38 C-20.78 510.89 -29.17 509.35 -37.67 507.84 C-43.28 506.82 -48.55 505.59 -53.91 503.68 C-57.37 502.56 -60.91 502.04 -64.5 501.5 C-69.77 500.64 -74.7 499.64 -79.71 497.74 C-82.37 496.88 -85 496.39 -87.76 495.91 C-88.74 495.74 -89.73 495.56 -90.74 495.39 C-91.86 495.2 -91.86 495.2 -93 495 C-92.88 500.09 -92.76 505.18 -92.63 510.27 C-92.58 512 -92.54 513.74 -92.5 515.47 C-92.45 517.96 -92.38 520.44 -92.32 522.93 C-92.29 524.1 -92.29 524.1 -92.27 525.28 C-92.24 529.27 -92.24 529.27 -91 533 C-90.77 535.76 -90.6 538.5 -90.46 541.27 C-90.42 542.1 -90.38 542.93 -90.33 543.79 C-90.24 545.56 -90.16 547.33 -90.07 549.1 C-89.94 551.76 -89.8 554.43 -89.66 557.09 C-89.19 566.4 -88.86 575.67 -89 585 C-93.08 583.44 -96.39 581.53 -100 579.06 C-103.61 576.6 -107.25 574.25 -111 572 C-112.09 571.22 -113.18 570.43 -114.25 569.62 C-117.67 567.14 -121.26 565.11 -124.98 563.11 C-127 562 -127 562 -130 560 C-130 559.34 -130 558.68 -130 558 C-130.56 557.9 -131.11 557.8 -131.68 557.7 C-134.52 556.84 -136.59 555.5 -139.06 553.88 C-140.03 553.24 -141 552.61 -142 551.96 C-142.99 551.32 -143.98 550.67 -145 550 C-151.93 545.54 -158.91 541.2 -166 537 C-166.16 537.87 -166.16 537.87 -166.33 538.76 C-166.49 539.54 -166.65 540.32 -166.81 541.12 C-166.96 541.89 -167.11 542.66 -167.27 543.45 C-168 546 -168 546 -169.44 548.79 C-171.28 552.57 -172.21 556.24 -173.19 560.31 C-175.98 571.42 -179.53 582.26 -183.08 593.14 C-184.34 597.06 -185.55 601 -186.75 604.94 C-188.55 610.75 -190.59 616.41 -193 622 C-194.98 621.01 -196.96 620.02 -199 619 C-199 618.01 -199 617.02 -199 616 C-200.46 613.69 -200.46 613.69 -202.38 611.38 C-203 610.58 -203.63 609.78 -204.27 608.96 C-205.86 606.92 -205.86 606.92 -208 606 C-208.41 605.13 -208.82 604.27 -209.25 603.38 C-211 600.01 -212.91 597.64 -215.4 594.84 C-218.13 591.7 -220.54 588.35 -223 585 C-223.71 584.05 -224.42 583.1 -225.16 582.12 C-225.89 581.13 -226.62 580.14 -227.38 579.12 C-228.41 577.74 -228.41 577.74 -229.46 576.32 C-231 574 -231 574 -231 572 C-231.66 572 -232.32 572 -233 572 C-234.48 570.13 -234.48 570.13 -236.19 567.56 C-238.64 563.97 -241.12 560.41 -243.75 556.94 C-244.3 556.2 -244.85 555.47 -245.42 554.71 C-246.99 552.74 -246.99 552.74 -250 552 C-250.37 552.87 -250.37 552.87 -250.75 553.75 C-252.17 556.31 -253.93 557.93 -256 560 C-257.02 561.66 -258.02 563.32 -259 565 C-260.32 566.68 -261.66 568.34 -263 570 C-264.59 572.04 -266.17 574.08 -267.75 576.12 C-268.19 576.69 -268.62 577.25 -269.07 577.84 C-271.86 581.47 -274.58 585.15 -277.25 588.88 C-279.93 592.59 -282.73 596.08 -285.76 599.52 C-287.44 601.53 -288.69 603.74 -290 606 C-291.32 607.68 -292.65 609.34 -294 611 C-295 612.35 -296 613.71 -297 615.06 C-299.15 617.95 -301.35 620.55 -304 623 C-304 622.01 -304 621.02 -304 620 C-304.99 619.67 -305.98 619.34 -307 619 C-307.79 616.52 -308.4 614.17 -308.94 611.62 C-310.28 605.76 -311.9 600.21 -314.06 594.58 C-315.37 590.99 -316.31 587.34 -317.28 583.64 C-318.17 580.37 -319.24 577.18 -320.35 573.97 C-321 572 -321.52 570.02 -322 568 C-322.56 568.19 -323.11 568.39 -323.69 568.59 C-327.52 569.89 -331.31 571.12 -335.25 572.06 C-338.82 572.83 -338.82 572.83 -341.24 574.04 C-344.8 575.28 -348.15 575.33 -351.88 575.31 C-352.56 575.33 -353.24 575.34 -353.94 575.36 C-359.77 575.37 -364.42 574.16 -369 570.32 C-369.52 569.78 -370.03 569.24 -370.56 568.69 C-372.22 567.1 -372.22 567.1 -374 566 C-378.21 566.57 -380.16 568.03 -383 571 C-383.76 571.3 -384.52 571.6 -385.3 571.9 C-388.85 573.35 -391.7 575.45 -394.82 577.66 C-396.92 578.95 -398.59 579.56 -401 580 C-401 580.66 -401 581.32 -401 582 C-403.56 584.3 -404.48 585 -408 585 C-409.24 581.29 -409.04 577.93 -408.91 574.07 C-408.89 573.28 -408.87 572.5 -408.85 571.69 C-408.8 570.02 -408.75 568.35 -408.7 566.68 C-408.63 564.17 -408.56 561.66 -408.49 559.15 C-408.26 551 -407.93 542.88 -407.22 534.75 C-406.33 524.45 -406.33 524.45 -410 515 C-410 514.34 -410 513.68 -410 513 C-410.66 513 -411.32 513 -412 513 C-412.33 512.41 -412.65 511.82 -412.99 511.21 C-413.43 510.42 -413.86 509.63 -414.31 508.81 C-414.74 508.04 -415.17 507.26 -415.61 506.46 C-417.03 503.94 -418.5 501.47 -420 499 C-423.4 499.62 -426.79 500.24 -430.19 500.88 C-431.15 501.05 -432.11 501.22 -433.1 501.4 C-434.49 501.66 -434.49 501.66 -435.92 501.93 C-436.77 502.09 -437.63 502.24 -438.5 502.41 C-441.14 503.03 -443.49 503.99 -446 505 C-447.51 505.35 -449.03 505.66 -450.55 505.93 C-451.41 506.08 -452.26 506.24 -453.15 506.4 C-454.5 506.63 -454.5 506.63 -455.88 506.88 C-464.74 508.49 -473.32 510.59 -482 513 C-490.59 515.2 -490.59 515.2 -493 514 C-492.25 508.25 -492.25 508.25 -490 506 C-489.51 504.52 -489.08 503.01 -488.69 501.5 C-487.36 496.85 -485.51 492.81 -483.27 488.53 C-481.56 485.11 -480.17 481.6 -478.8 478.03 C-478 476 -478 476 -477 474 C-476.42 471.09 -476.42 471.09 -477 468 C-479.58 465.82 -482.08 464.46 -485.09 462.96 C-493.66 458.54 -499.94 452.17 -505 444 C-505.46 443.55 -505.93 443.11 -506.41 442.64 C-508.36 440.63 -509.68 438.47 -511.12 436.06 C-511.64 435.21 -512.16 434.35 -512.7 433.47 C-514 431 -514 431 -514.55 428.75 C-514.7 428.17 -514.85 427.59 -515 427 C-515.66 426.67 -516.32 426.34 -517 426 C-517 425.01 -517 424.02 -517 423 C-518.05 422.94 -519.1 422.88 -520.18 422.82 C-521.55 422.73 -522.93 422.65 -524.31 422.56 C-525.35 422.5 -525.35 422.5 -526.4 422.44 C-529.47 422.25 -532.07 421.98 -535 421 C-537.83 420.73 -540.66 420.56 -543.5 420.38 C-546 420 -546 420 -548 418 C-545.86 414.21 -543.45 411 -540.56 407.75 C-539.8 406.88 -539.04 406.01 -538.25 405.11 C-535.98 402.98 -534.95 402.56 -532 402 C-531.73 401.32 -531.46 400.64 -531.19 399.94 C-529.96 396.89 -528.84 395.72 -526.56 393.44 C-522.77 389.28 -521.8 385.46 -520.67 380.03 C-519.11 372.98 -516.24 366.83 -512 361 C-511.1 359.48 -511.1 359.48 -510.19 357.94 C-508.22 355.29 -507.04 354.23 -504.38 352.5 C-500.89 350.21 -499.87 348.14 -499 344 C-500.36 343.69 -500.36 343.69 -501.75 343.38 C-508.9 341.34 -515.54 337.47 -521.94 333.75 C-524.8 332.01 -524.8 332.01 -527.25 331.12 C-530.65 329.73 -533.84 328.01 -537.06 326.25 C-541.8 323.69 -546.55 321.2 -551.38 318.81 C-556.34 316.36 -561.19 313.74 -566 311 C-565.89 309.21 -565.89 309.21 -565 307 C-562.92 305.7 -560.98 304.69 -558.75 303.69 C-557.31 303 -555.86 302.31 -554.42 301.62 C-553.59 301.22 -552.75 300.82 -551.89 300.41 C-545.87 297.47 -539.94 294.34 -534 291.25 C-525.36 286.76 -516.72 282.29 -507.96 278.04 C-506.97 277.55 -506.97 277.55 -505.95 277.05 C-504.61 276.39 -503.26 275.74 -501.91 275.09 C-497.25 272.79 -493.17 270.12 -489 267 C-491.25 261.58 -494.51 257.7 -499 254 C-499.99 253.67 -500.98 253.34 -502 253 C-502.43 251.86 -502.43 251.86 -502.88 250.69 C-504.3 247.29 -506.09 246.26 -509 244 C-516 236.72 -516 236.72 -516 234 C-516.99 233.67 -517.98 233.34 -519 233 C-519 232.34 -519 231.68 -519 231 C-519.66 231 -520.32 231 -521 231 C-521 230.34 -521 229.68 -521 229 C-521.66 229 -522.32 229 -523 229 C-523.8 228.03 -524.61 227.06 -525.44 226.06 C-527.71 222.81 -527.71 222.81 -531 222 C-531 221.34 -531 220.68 -531 220 C-532.64 218.31 -534.31 216.65 -536 215 C-537.67 213 -539.33 211 -541 209 C-541.89 208.13 -542.77 207.27 -543.69 206.38 C-545.78 204.23 -546.77 202.66 -548 200 C-539.94 198 -531.8 197.02 -523.56 196.06 C-522.1 195.89 -520.63 195.71 -519.16 195.54 C-508.95 194.33 -498.74 193.16 -488.53 192.01 C-482.13 191.28 -475.8 190.39 -469.45 189.34 C-466.25 188.9 -463.22 188.85 -460 189 C-461.12 182.01 -463.57 176.06 -466.52 169.67 C-468.16 166.1 -469.24 162.84 -470 159 C-470.66 158.67 -471.32 158.34 -472 158 C-473.07 155.86 -473.07 155.86 -474.12 153.19 C-474.48 152.31 -474.83 151.44 -475.2 150.54 C-476 148 -476 148 -476 144 C-476.66 144 -477.32 144 -478 144 C-478.39 142.94 -478.77 141.88 -479.17 140.78 C-482.68 131.17 -482.68 131.17 -487.06 121.93 C-489.66 116.59 -491.66 110.79 -493 105 C-490.36 105 -487.72 105 -485 105 C-485 105.66 -485 106.32 -485 107 C-484.42 107.04 -483.83 107.07 -483.23 107.11 C-477.44 107.58 -472.06 108.64 -466.45 110.12 C-462.44 111.14 -458.41 112.05 -454.38 112.94 C-453.61 113.11 -452.85 113.27 -452.07 113.45 C-450.5 113.79 -448.94 114.14 -447.37 114.48 C-443.47 115.34 -439.58 116.2 -435.69 117.06 C-434.56 117.31 -434.56 117.31 -433.42 117.57 C-427.89 118.79 -422.37 120.06 -416.86 121.34 C-412.91 122.25 -408.96 123.13 -405 124 C-404.98 122.82 -404.96 121.65 -404.94 120.44 C-404.92 119.45 -404.92 119.45 -404.9 118.43 C-404.96 115.87 -404.96 115.87 -405.49 112.82 C-406 108.99 -406.19 105.28 -406.28 101.42 C-406.32 100 -406.36 98.58 -406.39 97.16 C-406.45 94.94 -406.5 92.73 -406.55 90.51 C-406.6 88.36 -406.66 86.2 -406.72 84.05 C-406.75 82.77 -406.78 81.49 -406.81 80.17 C-406.86 76.98 -406.86 76.98 -408 74 C-408.11 72.67 -408.18 71.33 -408.21 69.99 C-408.23 69.19 -408.25 68.39 -408.27 67.56 C-408.29 66.27 -408.29 66.27 -408.32 64.96 C-408.34 64.07 -408.36 63.19 -408.38 62.28 C-408.44 59.46 -408.5 56.63 -408.56 53.81 C-408.61 51.9 -408.65 49.99 -408.69 48.07 C-408.8 43.38 -408.9 38.69 -409 34 C-404.76 35.61 -401.49 37.64 -397.81 40.31 C-392.45 44.13 -387.02 47.3 -381 50 C-381 50.66 -381 51.32 -381 52 C-380.28 52.25 -379.56 52.5 -378.81 52.75 C-375.72 54.12 -373.63 55.88 -371 58 C-367.33 60.5 -363.56 62.87 -359.81 65.25 C-358.8 65.9 -357.79 66.55 -356.75 67.22 C-355.79 67.83 -354.82 68.45 -353.83 69.08 C-352.95 69.64 -352.07 70.2 -351.17 70.78 C-349.12 72.16 -349.12 72.16 -347 72 C-346 73 -345 74 -344 75 C-340.88 77.27 -337.84 79.15 -334.3 80.62 C-333.21 81.08 -332.12 81.53 -331 82 C-330.67 80.62 -330.67 80.62 -330.34 79.2 C-326.73 64.27 -322.5 49.52 -317.08 35.14 C-316.08 32.22 -315.31 29.3 -314.58 26.3 C-313.38 21.57 -311.92 16.92 -310.5 12.25 C-310.04 10.71 -310.04 10.71 -309.57 9.14 C-309.27 8.15 -308.97 7.16 -308.66 6.14 C-308.39 5.25 -308.12 4.36 -307.84 3.44 C-307.06 1.17 -306.13 -0.88 -305 -3 C-301.27 -1.76 -300.2 -0.19 -298 3 C-298 3.99 -298 4.98 -298 6 C-297.01 6.33 -296.02 6.66 -295 7 C-293.56 8.6 -293.56 8.6 -292.07 10.69 C-291.51 11.46 -290.94 12.24 -290.37 13.03 C-289.77 13.87 -289.18 14.7 -288.56 15.56 C-287.31 17.3 -286.05 19.04 -284.79 20.77 C-284.16 21.65 -283.52 22.53 -282.87 23.43 C-279.65 27.86 -276.33 32.22 -273 36.57 C-270.14 40.34 -267.57 44.2 -265.14 48.26 C-263.44 50.85 -261.21 52.84 -259 55 C-256.16 58.55 -253.52 62.22 -251 66 C-248.94 66.72 -248.94 66.72 -247 67 C-246.74 66.27 -246.48 65.54 -246.22 64.78 C-244.95 61.89 -243.52 59.92 -241.5 57.5 C-238.27 53.56 -235.1 49.6 -232 45.56 C-231.58 45.02 -231.16 44.47 -230.73 43.91 C-227.33 39.47 -224.04 34.97 -220.79 30.44 C-218.93 27.9 -216.97 25.45 -215 23 C-214.03 21.73 -213.08 20.46 -212.12 19.19 C-211.61 18.5 -211.1 17.81 -210.57 17.1 C-209.55 15.74 -208.54 14.38 -207.53 13.02 C-206.55 11.71 -205.56 10.4 -204.58 9.1 C-203.43 7.57 -202.3 6.04 -201.17 4.5 C-200.25 3.26 -200.25 3.26 -199.31 2 C-198.47 0.86 -198.47 0.86 -197.61 -0.31 C-197.08 -0.87 -196.55 -1.43 -196 -2 C-195.01 -2 -194.02 -2 -193 -2 C-191.87 0.83 -190.74 3.66 -189.62 6.5 C-189.31 7.29 -188.99 8.08 -188.66 8.9 C-186.95 13.24 -185.55 17.5 -184.49 22.05 C-183.63 25.5 -182.41 28.83 -181.25 32.19 C-176.81 45.23 -173.18 58.52 -169.59 71.82 C-168.76 74.89 -167.88 77.95 -167 81 C-163.31 80.26 -161 78.64 -157.99 76.39 C-155.19 74.43 -152.21 72.88 -149.21 71.27 C-147.06 70.03 -145.11 68.67 -143.12 67.19 C-140 65 -140 65 -137 65 C-137 64.34 -137 63.68 -137 63 C-135.24 61.84 -133.48 60.7 -131.67 59.62 C-128.45 57.66 -125.29 55.61 -122.12 53.56 C-117.22 50.39 -112.27 47.32 -107.25 44.34 C-105.04 43.02 -102.86 41.68 -100.69 40.31 C-100.05 39.91 -99.41 39.51 -98.75 39.1 C-97.22 38.14 -95.7 37.17 -94.19 36.19 C-92 35 -92 35 -89 35 C-88.67 38.3 -88.34 41.6 -88 45 C-86.45 43.64 -86.45 43.64 -84.88 42.25 C-82.57 40.26 -80.38 38.6 -77.81 36.94 C-74.89 35.14 -74.89 35.14 -73 32.38 C-70.56 29.48 -68.54 29.15 -65 28 C-63.87 26.17 -63.87 26.17 -63 24 C-59.83 20.4 -57.38 18.75 -53 17 C-51.31 15.35 -49.65 13.69 -48 12 C-46.34 10.98 -44.68 9.98 -43 9 C-42.67 8.34 -42.34 7.68 -42 7 C-40.38 6.29 -38.75 5.59 -37.1 4.92 C-34.77 3.9 -32.59 2.7 -30.38 1.44 C-20.73 -4 -9.86 -6.57 0 0 Z M4 14 C5 17 5 17 5 17 Z M-9 108 C-8.34 108.66 -7.68 109.32 -7 110 C-7 109.34 -7 108.68 -7 108 C-7.66 108 -8.32 108 -9 108 Z M-95 109 C-94 112 -94 112 -94 112 Z M-17 484 C-16.67 485.32 -16.34 486.64 -16 488 C-15.67 487.34 -15.34 486.68 -15 486 C-15.66 485.34 -16.32 484.68 -17 484 Z M91 503 C92 507 92 507 92 507 Z M-256 555 C-256.33 555.99 -256.66 556.98 -257 558 C-256.34 558 -255.68 558 -255 558 C-254.67 557.01 -254.34 556.02 -254 555 C-254.66 555 -255.32 555 -256 555 Z M-259 558 C-258.67 558.99 -258.34 559.98 -258 561 C-257.67 560.01 -257.34 559.02 -257 558 C-257.66 558 -258.32 558 -259 558 Z M-267 570 C-266 572 -266 572 -266 572 Z M-271 574 C-271 574.66 -271 575.32 -271 576 C-270.34 575.67 -269.68 575.34 -269 575 C-269.66 574.67 -270.32 574.34 -271 574 Z M-405 580 C-404.67 580.66 -404.34 581.32 -404 582 C-403.67 581.34 -403.34 580.68 -403 580 C-403.66 580 -404.32 580 -405 580 Z M-296 607 C-295.67 607.66 -295.34 608.32 -295 609 C-294.67 608.34 -294.34 607.68 -294 607 C-294.66 607 -295.32 607 -296 607 Z " fill="#EEF4F8" transform="translate(700,55)"/>
<path d="M0 0 C6.78 7.13 9.81 14.8 12.87 23.96 C14.42 28.57 16.15 33.1 17.94 37.62 C20.14 43.24 22.32 48.85 24.44 54.5 C24.68 55.14 24.92 55.78 25.17 56.44 C26.52 60.08 27.86 63.72 29.19 67.36 C33.55 79.33 33.55 79.33 38.41 91.1 C39.44 93.56 39.44 93.56 40.09 95.77 C40.68 97.94 40.68 97.94 42.44 100.56 C44.61 101.4 46.68 101.77 48.98 102.13 C59.11 103.9 67 110.63 72.86 118.82 C83.18 134.31 88.43 152.6 84.73 171.07 C83.24 176.12 81.45 179.78 78 183.75 C75.88 186.3 75.88 186.3 75.51 189.45 C76.32 191.91 77.38 194.2 78.44 196.56 C79.15 198.53 79.83 200.51 80.5 202.5 C83.9 212.45 87.82 222.16 91.8 231.88 C95.65 241.38 99.21 250.97 102.75 260.58 C103.15 261.68 103.56 262.78 103.97 263.91 C104.37 265 104.77 266.09 105.19 267.22 C106.89 271.77 108.67 276.29 110.46 280.81 C112.33 286.07 112.09 289.07 109.88 294.12 C107.04 297.74 103.22 299.31 99.06 301 C98.43 301.26 97.79 301.52 97.13 301.79 C91.69 303.81 85.97 304.68 80.44 302.5 C74.91 299.58 73.14 293.38 70.88 287.9 C69.68 284.56 69.68 284.56 67.44 282.56 C65.6 281.86 63.73 281.23 61.85 280.64 C60.68 280.28 59.52 279.92 58.32 279.54 C57.06 279.16 55.8 278.77 54.5 278.38 C53.53 278.08 53.53 278.08 52.55 277.77 C32.47 271.61 12.16 266.1 -8.56 262.56 C-9.43 262.41 -10.29 262.26 -11.18 262.11 C-21.73 260.34 -32.11 259.3 -42.81 259.25 C-43.74 259.24 -44.67 259.24 -45.62 259.23 C-54.27 259.32 -62.25 261 -70.5 263.56 C-71.58 263.89 -72.66 264.22 -73.78 264.56 C-76.72 265.49 -76.72 265.49 -79.56 267.56 C-80.55 267.56 -81.54 267.56 -82.56 267.56 C-77.96 280.97 -72.08 292.65 -64.05 304.36 C-62.35 306.87 -60.74 309.43 -59.12 312 C-54.34 319.54 -49.34 326.75 -43.56 333.56 C-35.43 343.8 -28.09 354.86 -21.21 365.96 C-20.02 367.84 -18.78 369.68 -17.51 371.5 C-16.85 372.47 -16.18 373.44 -15.5 374.44 C-14.89 375.3 -14.28 376.16 -13.65 377.05 C-12.56 379.56 -12.56 379.56 -13.17 382.19 C-18 390.43 -27.78 394.76 -36.68 397.12 C-37.36 397.29 -38.05 397.45 -38.75 397.62 C-42.37 398.39 -42.37 398.39 -44.81 399.6 C-48.37 400.84 -51.72 400.89 -55.44 400.88 C-56.12 400.89 -56.8 400.91 -57.5 400.92 C-63.33 400.93 -67.98 399.72 -72.57 395.89 C-73.08 395.35 -73.6 394.81 -74.12 394.25 C-75.79 392.66 -75.79 392.66 -77.56 391.56 C-81.77 392.13 -83.72 393.6 -86.56 396.56 C-87.32 396.86 -88.08 397.16 -88.87 397.46 C-92.42 398.91 -95.27 401.02 -98.38 403.22 C-100.49 404.52 -102.15 405.12 -104.56 405.56 C-104.56 406.22 -104.56 406.88 -104.56 407.56 C-107.12 409.86 -108.04 410.56 -111.56 410.56 C-112.8 406.85 -112.6 403.49 -112.48 399.63 C-112.46 398.85 -112.43 398.06 -112.41 397.25 C-112.37 395.58 -112.32 393.91 -112.27 392.24 C-112.19 389.73 -112.12 387.22 -112.05 384.71 C-111.83 376.56 -111.49 368.44 -110.78 360.31 C-109.89 350.01 -109.89 350.01 -113.56 340.56 C-113.56 339.9 -113.56 339.24 -113.56 338.56 C-114.22 338.56 -114.88 338.56 -115.56 338.56 C-115.89 337.97 -116.21 337.38 -116.55 336.77 C-116.99 335.98 -117.42 335.19 -117.88 334.38 C-118.3 333.6 -118.73 332.82 -119.18 332.02 C-120.59 329.51 -122.07 327.03 -123.56 324.56 C-126.96 325.18 -130.36 325.81 -133.75 326.44 C-135.19 326.7 -135.19 326.7 -136.66 326.96 C-137.59 327.14 -138.52 327.31 -139.48 327.49 C-140.33 327.65 -141.19 327.81 -142.07 327.97 C-144.7 328.6 -147.05 329.55 -149.56 330.56 C-151.07 330.92 -152.59 331.23 -154.12 331.49 C-154.97 331.65 -155.83 331.8 -156.71 331.96 C-158.06 332.2 -158.06 332.2 -159.44 332.44 C-168.3 334.05 -176.88 336.15 -185.56 338.56 C-194.15 340.77 -194.15 340.77 -196.56 339.56 C-195.81 333.81 -195.81 333.81 -193.56 331.56 C-193.07 330.08 -192.64 328.58 -192.25 327.06 C-190.93 322.41 -189.07 318.37 -186.83 314.09 C-185.12 310.68 -183.74 307.16 -182.36 303.59 C-181.56 301.56 -181.56 301.56 -180.56 299.56 C-179.98 296.65 -179.98 296.65 -180.56 293.56 C-183.14 291.38 -185.64 290.02 -188.65 288.52 C-197.22 284.1 -203.51 277.73 -208.56 269.56 C-209.03 269.12 -209.49 268.67 -209.97 268.21 C-211.93 266.19 -213.24 264.04 -214.69 261.62 C-215.21 260.77 -215.72 259.92 -216.26 259.04 C-217.56 256.56 -217.56 256.56 -218.12 254.31 C-218.26 253.73 -218.41 253.16 -218.56 252.56 C-219.22 252.23 -219.88 251.9 -220.56 251.56 C-220.56 250.57 -220.56 249.58 -220.56 248.56 C-221.61 248.5 -222.66 248.44 -223.74 248.38 C-225.12 248.29 -226.5 248.21 -227.88 248.12 C-228.57 248.09 -229.26 248.05 -229.97 248.01 C-233.03 247.81 -235.63 247.54 -238.56 246.56 C-241.4 246.3 -244.23 246.12 -247.07 245.94 C-249.56 245.56 -249.56 245.56 -251.56 243.56 C-249.43 239.77 -247.01 236.57 -244.12 233.31 C-242.98 232.01 -242.98 232.01 -241.82 230.67 C-239.54 228.54 -238.51 228.12 -235.56 227.56 C-235.29 226.88 -235.03 226.2 -234.75 225.5 C-233.52 222.46 -232.4 221.28 -230.12 219 C-226.33 214.84 -225.36 211.02 -224.23 205.59 C-222.67 198.54 -219.8 192.39 -215.56 186.56 C-214.67 185.05 -214.67 185.05 -213.75 183.5 C-211.44 180.4 -209.28 178.88 -206.11 176.8 C-203.94 175.07 -203.24 173.21 -202.56 170.56 C-201.64 170.52 -201.64 170.52 -200.7 170.47 C-194.34 170.01 -189.25 168.59 -183.44 166.06 C-181.69 165.33 -179.93 164.6 -178.18 163.88 C-176.81 163.3 -176.81 163.3 -175.41 162.72 C-170.5 160.72 -165.53 158.9 -160.56 157.06 C-152.07 153.91 -143.63 150.65 -135.24 147.21 C-121.35 141.56 -121.35 141.56 -115.56 141.56 C-111.61 151.17 -107.81 160.82 -104.24 170.58 C-103.95 171.36 -103.67 172.15 -103.37 172.95 C-101.92 176.92 -100.47 180.89 -99.04 184.86 C-98.5 186.35 -97.96 187.83 -97.42 189.32 C-97.17 190 -96.93 190.69 -96.68 191.4 C-95 196.12 -95 196.12 -91.56 199.56 C-88.96 200.28 -88.96 200.28 -86.56 200.56 C-87.72 193.79 -89.45 187.62 -92 181.25 C-92.71 179.43 -93.41 177.61 -94.12 175.79 C-95.42 172.48 -96.72 169.16 -98.03 165.85 C-99.32 162.57 -100.59 159.29 -101.87 156.01 C-102.37 154.72 -102.88 153.43 -103.39 152.14 C-104.12 150.31 -104.83 148.48 -105.54 146.66 C-105.95 145.6 -106.37 144.55 -106.79 143.46 C-107.63 140.32 -107.62 138.61 -106.56 135.56 C-104.32 133.99 -104.32 133.99 -101.56 132.56 C-91.04 124.88 -81.75 115.39 -74.18 104.77 C-72.83 102.93 -71.44 101.14 -70.01 99.35 C-65.09 93.21 -60.48 87.1 -56.36 80.39 C-54.28 77.12 -52.03 74 -49.75 70.88 C-46 65.7 -42.46 60.42 -39.06 55 C-38.64 54.33 -38.22 53.67 -37.79 52.98 C-35.69 49.6 -33.9 46.34 -32.56 42.56 C-28.21 46.1 -26.94 50.18 -25.19 55.31 C-24.58 57.03 -23.97 58.75 -23.36 60.47 C-23.05 61.33 -22.75 62.19 -22.44 63.07 C-21.18 66.65 -19.84 70.2 -18.5 73.75 C-18.01 75.05 -17.52 76.36 -17.03 77.66 C-16.79 78.31 -16.54 78.95 -16.3 79.61 C-15.55 81.6 -14.81 83.59 -14.07 85.59 C-11.72 91.88 -9.34 98.15 -6.81 104.38 C-1.38 117.85 3.5 131.54 8.5 145.18 C11.03 152.1 13.58 159 16.36 165.82 C17.87 169.65 19.27 173.51 20.69 177.38 C26.63 193.57 32.74 209.67 39.44 225.56 C39.7 226.21 39.96 226.85 40.23 227.52 C41.39 230.33 42.27 232.39 44.44 234.56 C47.02 234.73 47.02 234.73 49.44 234.56 C48.87 229.01 47.42 224.4 45.31 219.25 C44.67 217.65 44.03 216.04 43.39 214.44 C43.07 213.63 42.74 212.81 42.4 211.98 C40.91 208.24 39.45 204.5 38 200.75 C37.71 200.01 37.43 199.27 37.13 198.51 C32.01 185.34 27.01 172.12 22.06 158.88 C18.88 150.36 15.64 141.86 12.38 133.38 C11.96 132.29 11.54 131.2 11.1 130.07 C10.27 127.92 9.45 125.77 8.62 123.63 C4.12 111.95 -0.33 100.27 -4.56 88.5 C-7.42 80.56 -10.46 72.72 -13.63 64.9 C-16.54 57.69 -19.24 50.42 -21.89 43.12 C-22.99 40.11 -24.12 37.11 -25.3 34.13 C-31.87 17.44 -31.87 17.44 -29.84 11.42 C-26.69 5.33 -21.74 3.02 -15.56 0.56 C-14.51 0.13 -13.46 -0.3 -12.38 -0.75 C-7.8 -1.87 -4.21 -2.36 0 0 Z M-108.56 405.56 C-108.23 406.22 -107.9 406.88 -107.56 407.56 C-107.23 406.9 -106.9 406.24 -106.56 405.56 C-107.22 405.56 -107.88 405.56 -108.56 405.56 Z " fill="#01DFB3" transform="translate(403.5625,229.4375)"/>
<path d="M0 0 C1.69 2.37 1.69 2.37 3 5 C3.56 5.74 4.11 6.48 4.69 7.25 C6.97 12.03 6.66 16.46 5.34 21.52 C3.07 27.88 -0.38 32.18 -5 37 C-6.21 38.41 -7.42 39.83 -8.62 41.25 C-11.21 44.21 -13.86 46.62 -17 49 C-18.32 50.14 -19.63 51.28 -20.94 52.44 C-24.25 55.35 -27.6 58.19 -31 61 C-31.79 61.68 -31.79 61.68 -32.6 62.38 C-35.06 64.5 -36.88 65.96 -40 67 C-41.68 68.65 -43.35 70.32 -45 72 C-47.22 73.88 -49.51 75.66 -51.81 77.44 C-52.43 77.92 -53.06 78.41 -53.7 78.91 C-57.43 81.81 -61.2 84.66 -65 87.47 C-67.6 89.46 -70.11 91.54 -72.62 93.62 C-75.51 96.01 -78.36 98.34 -81.5 100.38 C-83.97 101.86 -83.97 101.86 -85.62 103.62 C-87.25 105.25 -88.94 106 -91 107 C-92.28 108.28 -93.55 109.58 -94.79 110.91 C-97.16 113.15 -99.56 114.76 -102.31 116.5 C-109.36 121.11 -115.82 126.35 -122.35 131.66 C-128.71 136.82 -135.27 141.71 -141.83 146.61 C-145.07 149.05 -148.29 151.52 -151.5 154 C-158.6 159.48 -165.78 164.85 -172.96 170.21 C-174.43 171.31 -174.43 171.31 -175.94 172.44 C-177.42 173.55 -177.42 173.55 -178.94 174.68 C-181.03 176.27 -183.1 177.87 -185.15 179.51 C-196.08 188.21 -207.81 194.59 -220.44 200.5 C-221.37 200.95 -222.31 201.39 -223.27 201.85 C-228.36 204.17 -232.29 205.69 -238 205 C-243.65 202.7 -243.65 202.7 -245 200 C-245.75 194.21 -243.62 190.91 -240.56 186.25 C-240.11 185.55 -239.66 184.84 -239.2 184.12 C-235.88 179.04 -232.19 174.53 -228 170.15 C-226.2 168.22 -224.74 166.3 -223.25 164.12 C-216.7 155.15 -207.19 148.04 -198.61 141.14 C-195.19 138.33 -191.93 135.36 -188.66 132.38 C-185.66 129.69 -182.59 127.09 -179.5 124.5 C-174.66 120.44 -169.93 116.28 -165.25 112.04 C-155.99 103.65 -146.47 95.51 -136.69 87.75 C-131.5 83.63 -126.53 79.3 -121.63 74.84 C-117.46 71.04 -113.26 67.36 -108.81 63.88 C-105.1 60.95 -101.75 57.87 -98.46 54.48 C-96.77 52.76 -95.04 51.29 -93 50 C-92.34 50 -91.68 50 -91 50 C-90.75 49.22 -90.5 48.43 -90.25 47.62 C-88.77 44.51 -88.03 44.38 -85 43 C-84.2 42.2 -83.39 41.39 -82.56 40.56 C-80 38 -80 38 -77.44 36.5 C-74.83 35.1 -74.83 35.1 -73.06 32.44 C-70.58 29.5 -68.59 29.17 -65 28 C-63.87 26.17 -63.87 26.17 -63 24 C-59.83 20.4 -57.38 18.75 -53 17 C-51.31 15.35 -49.65 13.69 -48 12 C-46.34 10.98 -44.68 9.98 -43 9 C-42.67 8.34 -42.34 7.68 -42 7 C-40.38 6.29 -38.75 5.59 -37.1 4.92 C-34.77 3.9 -32.59 2.7 -30.38 1.44 C-20.73 -4 -9.86 -6.57 0 0 Z M4 14 C5 17 5 17 5 17 Z " fill="#02DFB3" transform="translate(700,55)"/>
<path d="M0 0 C7.33 0.1 12.02 2.76 17.31 7.69 C22.34 13.11 22.84 18.36 22.69 25.56 C22.2 30.89 20.92 34.9 16.94 38.69 C16.11 39.22 15.29 39.76 14.44 40.31 C13.45 40.97 12.46 41.63 11.44 42.31 C10.12 42.31 8.8 42.31 7.44 42.31 C7.44 42.97 7.44 43.63 7.44 44.31 C6.39 44.56 5.33 44.81 4.25 45.06 C0.55 45.98 -3.06 47.09 -6.69 48.25 C-12.49 50.07 -18.31 51.41 -24.27 52.6 C-27.76 53.35 -31.14 54.31 -34.56 55.31 C-43.35 57.78 -52.04 59.9 -61.03 61.5 C-63.72 62.12 -65.97 62.81 -68.51 63.82 C-72.41 65.34 -76.31 66.08 -80.44 66.69 C-86.62 67.68 -92.56 69.05 -98.56 70.81 C-105.92 72.96 -113.25 74.45 -120.82 75.69 C-128.19 76.42 -128.19 76.42 -134.56 79.31 C-136.89 79.66 -139.23 80 -141.56 80.31 C-142.9 80.63 -144.23 80.97 -145.56 81.31 C-148.8 82.04 -152.04 82.77 -155.27 83.5 C-158.56 84.27 -158.56 84.27 -161.68 85.36 C-164.24 86.21 -166.6 86.76 -169.25 87.19 C-174.59 88.11 -179.89 89.19 -185.19 90.31 C-185.97 90.48 -186.76 90.64 -187.57 90.82 C-191.35 91.62 -195.13 92.44 -198.89 93.29 C-203.39 94.29 -207.91 95.18 -212.43 96.06 C-224.77 98.48 -237.02 101 -249.07 104.67 C-250.21 105.02 -250.21 105.02 -251.37 105.37 C-252.82 105.82 -254.27 106.27 -255.72 106.74 C-260.8 108.31 -265.56 109.23 -270.74 107.65 C-273.81 105.91 -275.39 104.73 -276.75 101.44 C-276.5 97.19 -275.39 95.49 -272.56 92.31 C-266.84 88.71 -260.79 87.14 -254.3 85.36 C-248.76 83.81 -243.34 81.95 -237.89 80.1 C-235.17 79.18 -232.43 78.28 -229.7 77.39 C-215.95 72.94 -215.95 72.94 -202.53 67.6 C-191.35 62.74 -180.1 58.76 -168.44 55.25 C-159.67 52.61 -151.04 49.83 -142.52 46.47 C-138.28 44.81 -133.99 43.34 -129.69 41.88 C-123.54 39.75 -117.46 37.53 -111.44 35.06 C-106.82 33.18 -102.28 31.57 -97.48 30.22 C-93.28 28.91 -89.18 27.35 -85.06 25.81 C-79.46 23.72 -73.89 21.69 -68.14 20.05 C-64.64 19.05 -61.16 17.96 -57.69 16.88 C-57 16.66 -56.31 16.44 -55.59 16.22 C-51.48 14.93 -47.39 13.58 -43.31 12.19 C-39.32 10.84 -35.35 9.73 -31.25 8.75 C-26.72 7.66 -22.78 6.25 -18.56 4.31 C-14.23 2.69 -10.14 1.94 -5.56 1.31 C-3.95 -0.3 -2.23 0.06 0 0 Z " fill="#02DEB3" transform="translate(853.5625,233.6875)"/>
<path d="M0 0 C5.71 2.4 11.46 4.7 17.24 6.93 C18.49 7.42 18.49 7.42 19.76 7.92 C23.35 9.29 26.34 10.24 30.19 10.7 C34 11.35 34.79 12.48 37.37 15.24 C40.46 16.78 40.46 16.78 43.99 18.05 C44.64 18.3 45.28 18.55 45.95 18.8 C47.34 19.34 48.74 19.87 50.14 20.4 C53.27 21.58 56.39 22.8 59.51 24.01 C61.04 24.61 62.58 25.2 64.11 25.79 C70.68 28.33 77.09 31.04 83.37 34.24 C85.05 35.1 86.74 35.95 88.43 36.8 C89.65 37.42 89.65 37.42 90.9 38.06 C92.56 38.85 94.24 39.59 95.95 40.27 C98.08 41.13 100.04 42.09 102.06 43.18 C105.93 45.16 109.85 46.34 114.03 47.52 C117.02 48.44 119.68 49.65 122.37 51.24 C122.7 51.9 123.03 52.56 123.37 53.24 C125.41 53.93 127.46 54.62 129.51 55.28 C141.06 59.18 154.25 64.02 160.37 75.24 C160.7 75.57 161.03 75.9 161.37 76.24 C161.55 78.65 161.65 81.01 161.68 83.43 C161.74 85.4 161.74 85.4 161.79 87.41 C161.16 93.14 158.62 96.07 154.49 99.93 C149.04 103.96 145.24 105.93 138.37 105.24 C127.58 103.2 117.72 97.15 108.16 91.96 C106.75 91.2 105.34 90.44 103.93 89.68 C103.24 89.3 102.54 88.93 101.83 88.54 C95.99 85.44 89.99 82.89 83.81 80.54 C80.33 79.18 77.89 77.99 75.37 75.24 C73.51 74.45 73.51 74.45 71.43 73.93 C65.4 72.08 59.94 69.16 54.37 66.24 C54.04 66.9 53.71 67.56 53.37 68.24 C52.83 67.65 52.29 67.06 51.73 66.45 C49.15 64.04 46.68 62.59 43.56 60.96 C42.41 60.35 41.26 59.74 40.07 59.11 C38.84 58.47 37.6 57.82 36.37 57.18 C34.46 56.17 32.56 55.17 30.66 54.16 C29.39 53.49 28.11 52.81 26.84 52.14 C20.49 48.79 14.21 45.33 7.94 41.83 C3.25 39.23 -1.49 36.79 -6.3 34.44 C-8.7 33.21 -10.97 31.85 -13.26 30.43 C-17.5 27.83 -21.85 25.61 -26.32 23.43 C-56.22 8.75 -56.22 8.75 -59.63 0.24 C-59.96 -3.39 -59.91 -6.02 -58.63 -9.45 C-45.2 -24.97 -14.98 -6.31 0 0 Z M159.37 83.24 C160.37 87.24 160.37 87.24 160.37 87.24 Z " fill="#01DEB3" transform="translate(631.6319427490234,474.7590637207031)"/>
<path d="M0 0 C2.82 0.35 2.82 0.35 6.59 0.28 C6.59 0.94 6.59 1.6 6.59 2.28 C7.3 2.24 8.02 2.21 8.76 2.17 C20.53 1.86 31.92 3.86 43.41 6.24 C44.12 6.39 44.82 6.54 45.55 6.69 C48.93 7.66 51.63 9.39 54.59 11.28 C54.59 11.94 54.59 12.6 54.59 13.28 C55.58 13.61 56.57 13.94 57.59 14.28 C62.19 19.8 62.48 25.53 62.3 32.59 C61.3 37.78 59.02 40.21 55.14 43.64 C50.85 46.39 46.69 47.71 41.59 47.28 C41.26 46.95 40.93 46.62 40.59 46.28 C38.17 45.97 35.76 45.7 33.34 45.46 C17.54 43.7 2.14 40.29 -13.29 36.54 C-14.84 36.16 -16.39 35.79 -17.94 35.42 C-29.27 32.72 -39.78 29 -50.41 24.28 C-51.42 23.83 -52.44 23.39 -53.48 22.94 C-55.93 21.85 -58.36 20.73 -60.79 19.59 C-61.59 19.22 -62.4 18.86 -63.23 18.48 C-70.5 15.07 -70.5 15.07 -72.41 11.28 C-72.16 7.95 -71.31 5.03 -69.41 2.28 C-65.97 0.65 -62.78 -0.1 -59.02 -0.58 C-57.47 -0.77 -57.47 -0.77 -55.9 -0.97 C-36.62 -3.2 -19.25 -2.5 0 0 Z " fill="#02DEB2" transform="translate(704.4130859375,396.724609375)"/>
<path d="M0 0 C0.93 0.29 1.86 0.58 2.81 0.88 C6.56 2.8 8.29 5.25 9.87 9.13 C11.75 15.71 10.33 20.17 7.65 26.34 C4.58 31.29 0.5 33.45 -4.81 35.56 C-5.86 35.98 -6.92 36.4 -8 36.84 C-8.99 37.22 -9.98 37.6 -11 38 C-11.76 38.3 -12.53 38.6 -13.31 38.91 C-17.48 40.53 -21.7 41.79 -26 43 C-28.2 43.72 -30.4 44.47 -32.59 45.22 C-34.47 45.83 -36.36 46.37 -38.26 46.9 C-42.39 48.11 -46.36 49.59 -50.38 51.12 C-62.1 55.52 -74.03 59.31 -86 63 C-87.05 63.33 -87.05 63.33 -88.13 63.66 C-94.33 65.52 -99.46 66.16 -105.44 63.44 C-108.7 60.33 -109.54 58.48 -110 54 C-107.47 48.43 -105.28 46.02 -99.75 43.12 C-98.5 42.45 -97.24 41.78 -95.99 41.11 C-95.01 40.6 -95.01 40.6 -94.01 40.07 C-91.28 38.62 -88.6 37.08 -85.91 35.54 C-78.73 31.43 -71.44 27.63 -64 24 C-41.47 12.95 -41.47 12.95 -20 0 C-12.42 -3.04 -7.4 -3.39 0 0 Z " fill="#01DFB3" transform="translate(708,183)"/>
<path d="M0 0 C6.17 3.22 7.96 12.35 10.25 18.54 C10.79 19.97 11.32 21.4 11.85 22.82 C12.12 23.56 12.4 24.3 12.68 25.06 C14.09 28.81 15.51 32.56 16.93 36.31 C17.51 37.85 18.1 39.38 18.68 40.92 C18.97 41.69 19.26 42.46 19.56 43.26 C27.85 65.11 27.85 65.11 31.59 75.32 C31.85 76.04 32.12 76.76 32.39 77.5 C33.34 80.09 34.3 82.69 35.24 85.29 C35.91 87.13 36.59 88.98 37.28 90.82 C37.64 91.82 38.01 92.82 38.39 93.85 C39.33 96.31 39.33 96.31 40.99 97.67 C43.48 100.34 44.24 103.78 45.34 107.2 C49.45 120.97 49.45 120.97 57.53 132.32 C56.71 132.46 55.9 132.59 55.06 132.73 C53.31 133.02 53.31 133.02 51.53 133.32 C50.53 133.48 50.53 133.48 49.52 133.65 C47.33 134.01 45.15 134.39 42.96 134.76 C42.22 134.88 41.48 135 40.72 135.13 C37.7 135.65 34.96 136.14 32.12 137.3 C28.09 138.88 23.9 139.45 19.65 140.2 C10.79 141.81 2.21 143.91 -6.47 146.32 C-15.06 148.52 -15.06 148.52 -17.47 147.32 C-16.72 141.57 -16.72 141.57 -14.47 139.32 C-13.98 137.84 -13.55 136.33 -13.16 134.82 C-11.83 130.16 -9.97 126.11 -7.73 121.83 C-5.69 117.77 -4.08 113.56 -2.47 109.32 C-2.17 108.53 -1.87 107.73 -1.56 106.91 C-0.86 105.05 -0.16 103.19 0.53 101.32 C1.27 101.39 2 101.46 2.77 101.54 C16.38 103.15 16.38 103.15 29.53 100.32 C28.88 94.75 27 89.93 24.96 84.76 C24.24 82.88 23.51 80.99 22.78 79.11 C22.4 78.15 22.03 77.19 21.64 76.2 C19.89 71.69 18.18 67.16 16.46 62.63 C13.76 55.53 11.02 48.45 8.26 41.37 C5.25 33.65 2.35 25.88 -0.54 18.11 C-0.91 17.13 -1.27 16.15 -1.65 15.13 C-1.98 14.25 -2.31 13.37 -2.64 12.46 C-3.44 10.32 -3.44 10.32 -4.47 8.32 C-4.61 5.65 -4.52 3 -4.47 0.32 C-2.47 -0.68 -2.47 -0.68 0 0 Z " fill="#EBF5F8" transform="translate(224.47265625,421.6796875)"/>
<path d="M0 0 C6.13 4.48 9.52 12.01 13.19 18.47 C14.41 20.54 15.83 22.44 17.26 24.36 C20.3 29.19 20.18 34.69 19.2 40.18 C17.07 43.18 17.07 43.18 14.2 45.18 C12.87 46.32 12.87 46.32 11.51 47.49 C7.07 49.75 3.06 50.46 -1.8 49.18 C-9.15 45.23 -13.1 38.97 -17.3 31.99 C-17.94 31.01 -18.57 30.03 -19.22 29.03 C-23.29 22.36 -25.04 17 -23.8 9.18 C-21.96 4.77 -19.77 2.9 -15.62 0.8 C-10.4 -1.22 -5.28 -2.41 0 0 Z " fill="#E9F5F8" transform="translate(321.8046875,526.82421875)"/>
<path d="M0 0 C2.22 2.79 3.82 5.52 5.31 8.75 C7.4 13.06 9.85 16.7 12.86 20.41 C14 22 14 22 14 24 C14.66 24 15.32 24 16 24 C17.29 25.46 17.29 25.46 18.62 27.38 C19.07 28 19.52 28.63 19.98 29.27 C21 31 21 31 21 33 C22.49 33.5 22.49 33.5 24 34 C25.61 36.07 25.61 36.07 27.19 38.56 C27.72 39.39 28.25 40.22 28.79 41.07 C29.19 41.7 29.59 42.34 30 43 C29.05 43.62 28.1 44.24 27.12 44.88 C24.06 46.82 24.06 46.82 22 49 C21.23 49.31 20.46 49.62 19.66 49.93 C16.12 51.35 13.28 53.46 10.18 55.66 C8.08 56.95 6.41 57.56 4 58 C4 58.66 4 59.32 4 60 C1.44 62.3 0.52 63 -3 63 C-4.21 59.36 -4.06 56.1 -3.95 52.32 C-3.93 51.55 -3.91 50.79 -3.89 50 C-3.83 47.52 -3.76 45.04 -3.69 42.56 C-3.66 41.73 -3.64 40.89 -3.62 40.03 C-2.71 8.14 -2.71 8.14 0 0 Z M0 58 C0.33 58.66 0.66 59.32 1 60 C1.33 59.34 1.66 58.68 2 58 C1.34 58 0.68 58 0 58 Z " fill="#EBF4F8" transform="translate(295,577)"/>
<path d="M0 0 C1.39 2.78 0.94 4.95 0.81 8.06 C0.71 16.75 2.74 24.66 5 33 C2.56 32.86 0.12 32.71 -2.31 32.56 C-3 32.52 -3.69 32.48 -4.4 32.44 C-7.47 32.25 -10.07 31.98 -13 31 C-15.83 30.73 -18.66 30.56 -21.5 30.38 C-24 30 -24 30 -26 28 C-23.86 24.21 -21.45 21 -18.56 17.75 C-17.42 16.44 -17.42 16.44 -16.25 15.11 C-13.97 12.97 -12.95 12.58 -10 12 C-9.33 10.34 -8.66 8.67 -8 7 C-5.56 4.88 -5.56 4.88 -3 3 C-1.98 2.02 -0.97 1.03 0 0 Z " fill="#EAF4F7" transform="translate(178,445)"/>
<path d="M0 0 C3.27 3.68 5.76 7.74 8.19 12 C8.54 12.6 8.9 13.21 9.26 13.83 C11.19 17.19 12.51 20.14 13 24 C10.79 26.2 8.58 28.25 6 30 C3.25 29.94 3.25 29.94 1 29 C0.01 28.67 -0.98 28.34 -2 28 C-2.69 25.94 -2.69 25.94 -3 24 C-3.99 24 -4.98 24 -6 24 C-8.64 18.72 -11.28 13.44 -14 8 C-6.81 -2.79 -6.81 -2.79 0 0 Z " fill="#07DBB2" transform="translate(320,536)"/>
<path d="M0 0 C4.01 1.34 4.74 3.23 7 6.75 C8.02 8.32 8.02 8.32 9.06 9.92 C10.02 11.45 10.02 11.45 11 13 C11.58 13.91 12.15 14.83 12.75 15.77 C14 18 14 18 14 20 C13.34 20 12.68 20 12 20 C10.43 17.78 8.98 15.56 7.56 13.25 C6.77 11.98 5.98 10.72 5.19 9.45 C4.82 8.85 4.44 8.25 4.06 7.63 C3.18 6.27 2.2 4.96 1.21 3.67 C0 2 0 2 0 0 Z " fill="#B6FAF4" transform="translate(378,589)"/>
<path d="M0 0 C3.39 1.13 3.79 1.74 5.7 4.6 C6.19 5.32 6.67 6.03 7.17 6.78 C7.67 7.53 8.17 8.28 8.69 9.06 C9.2 9.82 9.71 10.58 10.24 11.36 C11.5 13.24 12.75 15.12 14 17 C13.67 17.66 13.34 18.32 13 19 C9.25 14.86 5.73 10.91 3 6 C2.44 5.28 1.89 4.56 1.31 3.81 C0 2 0 2 0 0 Z " fill="#B1FBF4" transform="translate(344,541)"/>
<path d="M0 0 C2.38 3.11 4.6 6.29 6.75 9.56 C7.38 10.51 8.02 11.46 8.67 12.44 C9.11 13.29 9.55 14.13 10 15 C9.67 15.99 9.34 16.98 9 18 C6.47 14.31 4.05 10.55 1.69 6.75 C0.89 5.47 0.89 5.47 0.07 4.17 C-0.28 3.46 -0.63 2.74 -1 2 C-0.67 1.34 -0.34 0.68 0 0 Z " fill="#B6FAF4" transform="translate(334,523)"/>
<path d="M0 0 C1.07 0.33 2.14 0.66 3.25 1 C7 2.17 7 2.17 11 2 C11.33 2.99 11.66 3.98 12 5 C10.56 4.89 9.12 4.76 7.69 4.62 C6.89 4.56 6.09 4.49 5.26 4.41 C3 4 3 4 0 2 C0 1.34 0 0.68 0 0 Z " fill="#B5FAF4" transform="translate(482,530)"/>
<path d="M0 0 C-1.79 1.01 -3.58 2 -5.38 3 C-6.37 3.56 -7.37 4.11 -8.4 4.69 C-11 6 -11 6 -13 6 C-13 5.34 -13 4.68 -13 4 C-11.59 3.13 -10.17 2.28 -8.75 1.44 C-7.96 0.96 -7.17 0.49 -6.36 -0 C-3.69 -1.13 -2.65 -1.02 0 0 Z " fill="#CDF8F6" transform="translate(504,245)"/>
<path d="M0 0 C0.66 0.33 1.32 0.66 2 1 C-1.63 4.3 -5.26 7.6 -9 11 C-9.66 10.67 -10.32 10.34 -11 10 C-3.7 2.52 -3.7 2.52 0 0 Z " fill="#B1FBF4" transform="translate(597,112)"/>
<path d="M0 0 C0.33 0 0.66 0 1 0 C1 4.95 1 9.9 1 15 C0.67 15 0.34 15 0 15 C0 10.05 0 5.1 0 0 Z " fill="#000102" transform="translate(608,571)"/>
<path d="M0 0 C2.97 0 5.94 0 9 0 C9 0.33 9 0.66 9 1 C6.03 1 3.06 1 0 1 C0 0.67 0 0.34 0 0 Z " fill="#000102" transform="translate(702,480)"/>
<path d="M0 0 C2.64 0 5.28 0 8 0 C8 0.33 8 0.66 8 1 C5.36 1 2.72 1 0 1 C0 0.67 0 0.34 0 0 Z " fill="#000102" transform="translate(671,484)"/>
<path d="M0 0 C2.31 0 4.62 0 7 0 C7 0.33 7 0.66 7 1 C4.69 1 2.38 1 0 1 C0 0.67 0 0.34 0 0 Z " fill="#000102" transform="translate(723,478)"/>
<path d="M0 0 C2.31 0 4.62 0 7 0 C7 0.33 7 0.66 7 1 C4.69 1 2.38 1 0 1 C0 0.67 0 0.34 0 0 Z " fill="#000102" transform="translate(174,478)"/>
<path d="M0 0 C2.31 0 4.62 0 7 0 C7 0.33 7 0.66 7 1 C4.69 1 2.38 1 0 1 C0 0.67 0 0.34 0 0 Z " fill="#000102" transform="translate(738,476)"/>
<path d="M0 0 C2.31 0 4.62 0 7 0 C7 0.33 7 0.66 7 1 C4.69 1 2.38 1 0 1 C0 0.67 0 0.34 0 0 Z " fill="#000102" transform="translate(738,443)"/>
<path d="M0 0 C1.98 0 3.96 0 6 0 C6 0.33 6 0.66 6 1 C4.02 1 2.04 1 0 1 C0 0.67 0 0.34 0 0 Z " fill="#000102" transform="translate(688,482)"/>
<path d="M0 0 C1.98 0 3.96 0 6 0 C6 0.33 6 0.66 6 1 C4.02 1 2.04 1 0 1 C0 0.67 0 0.34 0 0 Z " fill="#000102" transform="translate(159,476)"/>
<path d="M0 0 C1.65 0 3.3 0 5 0 C5 0.33 5 0.66 5 1 C3.35 1 1.7 1 0 1 C0 0.67 0 0.34 0 0 Z " fill="#000102" transform="translate(363,627)"/>
<path d="M0 0 C0.33 0 0.66 0 1 0 C1 1.65 1 3.3 1 5 C0.67 5 0.34 5 0 5 C0 3.35 0 1.7 0 0 Z " fill="#000102" transform="translate(610,608)"/>
<path d="M0 0 C4 1 4 1 4 1 Z " fill="#000102" transform="translate(687,569)"/>
<path d="M0 0 C4 1 4 1 4 1 Z " fill="#000102" transform="translate(212,569)"/>
<path d="M0 0 C1 4 1 4 1 4 Z " fill="#000102" transform="translate(794,557)"/>
<path d="M0 0 C1 4 1 4 1 4 Z " fill="#000102" transform="translate(695,161)"/>
<path d="M0 0 C3 1 3 1 3 1 Z " fill="#000102" transform="translate(220,567)"/>
<path d="" fill="#000102" transform="translate(0,0)"/>
<path d="M0 0 C3 1 3 1 3 1 Z " fill="#000102" transform="translate(764,302)"/>
<path d="M0 0 C3 1 3 1 3 1 Z " fill="#000102" transform="translate(774,300)"/>
<path d="M0 0 C3 1 3 1 3 1 Z " fill="#000102" transform="translate(789,296)"/>
<path d="M0 0 C3 1 3 1 3 1 Z " fill="#000102" transform="translate(797,294)"/>
<path d="M0 0 C3 1 3 1 3 1 Z " fill="#000102" transform="translate(821,288)"/>
<path d="" fill="#000102" transform="translate(0,0)"/>
<path d="" fill="#000102" transform="translate(0,0)"/>
<path d="" fill="#000102" transform="translate(0,0)"/>
<path d="" fill="#000102" transform="translate(0,0)"/>
<path d="" fill="#000102" transform="translate(0,0)"/>
<path d="M0 0 C2 1 2 1 2 1 Z " fill="#000102" transform="translate(336,629)"/>
<path d="M0 0 C2 1 2 1 2 1 Z " fill="#000102" transform="translate(324,621)"/>
<path d="M0 0 C2 1 2 1 2 1 Z " fill="#000102" transform="translate(680,567)"/>
<path d="" fill="#000102" transform="translate(0,0)"/>
<path d="M0 0 C2 1 2 1 2 1 Z " fill="#000102" transform="translate(265,557)"/>
<path d="M0 0 C2 1 2 1 2 1 Z " fill="#000102" transform="translate(753,443)"/>
<path d="M0 0 C2 1 2 1 2 1 Z " fill="#000102" transform="translate(783,298)"/>
<path d="M0 0 C2 1 2 1 2 1 Z " fill="#000102" transform="translate(807,292)"/>
<path d="M0 0 C2 1 2 1 2 1 Z " fill="#000102" transform="translate(815,290)"/>
<path d="" fill="#000102" transform="translate(0,0)"/>
<path d="" fill="#000102" transform="translate(0,0)"/>
<path d="" fill="#000102" transform="translate(0,0)"/>
<path d="" fill="#000102" transform="translate(0,0)"/>
<path d="M0 0 C2 1 2 1 2 1 Z " fill="#000102" transform="translate(667,230)"/>
<path d="M0 0 C2 1 2 1 2 1 Z " fill="#000102" transform="translate(675,228)"/>
<path d="" fill="#000102" transform="translate(0,0)"/>
<path d="" fill="#000102" transform="translate(0,0)"/>
<path d="" fill="#000102" transform="translate(0,0)"/>
<path d="" fill="#000102" transform="translate(0,0)"/>
<path d="" fill="#000102" transform="translate(0,0)"/>
<path d="" fill="#000102" transform="translate(0,0)"/>
<path d="" fill="#000102" transform="translate(0,0)"/>
<path d="" fill="#000102" transform="translate(0,0)"/>
<path d="" fill="#000102" transform="translate(0,0)"/>
<path d="" fill="#000102" transform="translate(0,0)"/>
<path d="" fill="#000102" transform="translate(0,0)"/>
<path d="" fill="#000102" transform="translate(0,0)"/>
<path d="" fill="#000102" transform="translate(0,0)"/>
<path d="" fill="#000102" transform="translate(0,0)"/>
<path d="" fill="#000102" transform="translate(0,0)"/>
<path d="" fill="#000102" transform="translate(0,0)"/>
<path d="" fill="#000102" transform="translate(0,0)"/>
<path d="" fill="#000102" transform="translate(0,0)"/>
<path d="" fill="#000102" transform="translate(0,0)"/>
<path d="" fill="#000102" transform="translate(0,0)"/>
<path d="" fill="#000102" transform="translate(0,0)"/>
<path d="" fill="#000102" transform="translate(0,0)"/>
<path d="" fill="#000102" transform="translate(0,0)"/>
<path d="" fill="#000102" transform="translate(0,0)"/>
<path d="" fill="#000102" transform="translate(0,0)"/>
<path d="" fill="#000102" transform="translate(0,0)"/>
<path d="" fill="#000102" transform="translate(0,0)"/>
<path d="" fill="#000102" transform="translate(0,0)"/>
<path d="" fill="#000102" transform="translate(0,0)"/>
<path d="" fill="#000102" transform="translate(0,0)"/>
<path d="" fill="#000102" transform="translate(0,0)"/>
<path d="" fill="#000102" transform="translate(0,0)"/>
<path d="" fill="#000102" transform="translate(0,0)"/>
<path d="" fill="#000102" transform="translate(0,0)"/>
<path d="" fill="#000102" transform="translate(0,0)"/>
<path d="" fill="#000102" transform="translate(0,0)"/>
<path d="" fill="#000102" transform="translate(0,0)"/>
<path d="" fill="#000102" transform="translate(0,0)"/>
<path d="" fill="#000102" transform="translate(0,0)"/>
<path d="" fill="#385555" transform="translate(0,0)"/>
<path d="" fill="#000102" transform="translate(0,0)"/>
<path d="" fill="#000102" transform="translate(0,0)"/>
<path d="" fill="#000102" transform="translate(0,0)"/>
<path d="" fill="#000102" transform="translate(0,0)"/>
<path d="" fill="#000102" transform="translate(0,0)"/>
<path d="" fill="#000102" transform="translate(0,0)"/>
<path d="" fill="#000102" transform="translate(0,0)"/>
<path d="" fill="#000102" transform="translate(0,0)"/>
<path d="" fill="#000102" transform="translate(0,0)"/>
<path d="" fill="#000102" transform="translate(0,0)"/>
<path d="" fill="#000102" transform="translate(0,0)"/>
<path d="" fill="#000102" transform="translate(0,0)"/>
<path d="" fill="#000102" transform="translate(0,0)"/>
<path d="" fill="#000102" transform="translate(0,0)"/>
<path d="" fill="#000102" transform="translate(0,0)"/>
<path d="" fill="#000102" transform="translate(0,0)"/>
<path d="" fill="#000102" transform="translate(0,0)"/>
<path d="" fill="#000102" transform="translate(0,0)"/>
<path d="" fill="#000102" transform="translate(0,0)"/>
<path d="" fill="#000102" transform="translate(0,0)"/>
<path d="" fill="#000102" transform="translate(0,0)"/>
<path d="" fill="#000102" transform="translate(0,0)"/>
<path d="" fill="#000102" transform="translate(0,0)"/>
<path d="" fill="#000102" transform="translate(0,0)"/>
<path d="" fill="#000102" transform="translate(0,0)"/>
<path d="" fill="#000102" transform="translate(0,0)"/>
<path d="" fill="#000102" transform="translate(0,0)"/>
<path d="" fill="#000102" transform="translate(0,0)"/>
<path d="" fill="#000102" transform="translate(0,0)"/>
<path d="" fill="#000102" transform="translate(0,0)"/>
<path d="" fill="#EFF5F9" transform="translate(0,0)"/>
<path d="" fill="#000102" transform="translate(0,0)"/>
<path d="" fill="#385555" transform="translate(0,0)"/>
<path d="" fill="#000102" transform="translate(0,0)"/>
<path d="" fill="#385555" transform="translate(0,0)"/>
<path d="" fill="#000102" transform="translate(0,0)"/>
<path d="" fill="#000102" transform="translate(0,0)"/>
<path d="" fill="#000102" transform="translate(0,0)"/>
<path d="" fill="#000102" transform="translate(0,0)"/>
<path d="" fill="#000102" transform="translate(0,0)"/>
<path d="" fill="#000102" transform="translate(0,0)"/>
<path d="" fill="#385555" transform="translate(0,0)"/>
<path d="" fill="#000102" transform="translate(0,0)"/>
<path d="" fill="#000102" transform="translate(0,0)"/>
</svg>
